<svg width="32" height="32" viewBox="0 0 32 32" fill="none" xmlns="http://www.w3.org/2000/svg">
<g clip-path="url(#clip0_10547_29633)">
<circle cx="16" cy="16" r="18" fill="#9FCFF2"/>
<mask id="mask0_10547_29633" style="mask-type:alpha" maskUnits="userSpaceOnUse" x="0" y="0" width="32" height="32">
<circle cx="16" cy="16" r="16" fill="#9FCFF2"/>
</mask>
<g mask="url(#mask0_10547_29633)">
<path d="M77.4987 -11.2229C77.441 -11.2976 77.3903 -11.3638 77.3452 -11.4215C76.9367 -11.954 76.8972 -11.9808 76.2986 -12.1357C76.1577 -12.1723 75.9802 -12.2188 75.7506 -12.285C75.7337 -12.2878 75.7154 -12.2907 75.6985 -12.2935C73.8306 -12.416 73.4996 -12.602 73.1784 -12.7837C72.8797 -12.9513 72.5966 -13.1105 71.4345 -13.2049C71.3345 -13.2133 71.2316 -13.2077 71.1302 -13.188C68.5425 -12.7034 68.1594 -12.671 66.7972 -13.4232C65.9661 -13.8824 65.5759 -13.9346 65.0364 -14.0092C64.4715 -14.0867 63.6982 -14.1923 61.9472 -14.853C61.9373 -14.8558 61.9261 -14.8586 61.9162 -14.8629C59.4806 -15.4108 58.527 -14.9911 57.8297 -14.684C57.2395 -14.4248 56.8831 -14.2684 55.8041 -14.9065C53.9545 -16.0025 52.6402 -15.7348 51.4809 -15.4996C50.5639 -15.3136 49.7722 -15.1516 48.8552 -15.7109C48.7904 -15.7503 48.7439 -15.8165 48.7312 -15.8912C48.7171 -15.9644 48.7354 -16.0363 48.7805 -16.094C49.0862 -16.4899 49.258 -16.5448 49.3947 -16.5899C49.5905 -16.6533 49.737 -16.7265 49.8426 -17.0885C49.9553 -17.4759 49.7736 -17.8901 49.4102 -18.0732C47.8057 -18.8818 47.0662 -18.5437 45.8406 -17.983C45.087 -17.6393 44.1503 -17.2111 42.6698 -16.8772C42.6698 -16.8772 42.6684 -16.8772 42.667 -16.8772L42.2204 -16.842C40.1427 -16.6772 39.8595 -16.6547 38.3438 -15.37C38.341 -15.3686 38.3382 -15.3658 38.3354 -15.3658C37.2972 -15.1066 36.821 -14.8685 36.6421 -14.5234C36.4773 -14.2036 36.6083 -13.8754 36.7591 -13.4965C36.9732 -12.957 37.2408 -12.2864 36.9168 -11.244C36.8816 -11.1328 36.7887 -11.044 36.6731 -11.0116C36.0435 -10.8398 35.6448 -10.8341 35.487 -10.9975C35.3138 -11.1764 35.3405 -11.6385 35.5659 -12.3696C35.649 -12.6372 35.6674 -12.9189 35.6209 -13.1838C35.4885 -13.9275 35.218 -14.3501 34.8151 -14.4389C34.3686 -14.5375 33.8699 -14.1952 33.3318 -13.4218C33.2684 -13.3317 33.1881 -13.2514 33.0909 -13.1823C32.3049 -12.633 32.0049 -12.695 31.5485 -12.7907C30.6511 -12.9795 29.4214 -13.2387 24.4601 -9.8706C24.3023 -9.76354 24.1136 -9.71424 23.9248 -9.72974C23.1853 -9.79172 22.7148 -10.0467 22.4852 -10.5101C22.45 -10.582 22.457 -10.6623 22.5063 -10.7257C22.5288 -10.7552 22.5951 -10.8214 22.7049 -10.7989L22.8303 -10.7721C23.5346 -10.6214 23.9995 -10.5214 24.3221 -11.3117C24.4333 -11.5835 24.408 -11.8948 24.2544 -12.1414C23.5389 -13.2964 22.6246 -14.0064 21.54 -14.2501C19.8397 -14.6318 18.0521 -13.7867 16.852 -13.0105C16.104 -12.5259 15.394 -11.8836 14.7446 -11.1032C14.1953 -10.4425 13.6276 -10.041 13.1712 -9.71988C12.6612 -9.35926 12.2584 -9.07471 12.2372 -8.62253C12.2105 -8.03794 12.8317 -7.31249 14.7939 -5.63901C14.8249 -5.61224 14.863 -5.59393 14.9024 -5.58689C15.5814 -5.46011 15.9687 -5.49814 16.1955 -5.71367C16.4674 -5.97004 16.4111 -6.39405 16.3477 -6.88426C16.2533 -7.60408 16.1364 -8.49857 16.8027 -9.4311C16.8027 -9.4311 16.8041 -9.43392 16.8055 -9.43533C17.3704 -9.97484 17.7704 -10.0565 17.9423 -9.96076C18.1296 -9.85651 18.1789 -9.48322 18.0705 -8.98597C17.9958 -8.64507 18.024 -8.30277 18.1508 -7.99428L18.2141 -7.84073C18.5607 -7.00681 19.0847 -5.74466 18.5297 -5.07977C18.0409 -4.49377 16.7773 -4.41911 14.7756 -4.85439C13.1979 -5.1981 12.781 -4.75437 12.1499 -4.08385C11.9851 -3.90777 11.7977 -3.70915 11.5667 -3.50208C11.5653 -3.50067 11.5625 -3.49926 11.5611 -3.49785C11.0779 -3.2781 10.6624 -3.10625 10.3271 -2.96961C8.70432 -2.30332 8.45358 -2.13991 9.12833 -0.273449C9.16636 -0.170618 9.1889 -0.062151 9.19876 0.0477238C9.20721 0.137878 9.21707 0.247751 9.21707 0.323818C9.21707 0.336496 9.20721 0.344948 9.19453 0.34354C9.12974 0.336496 9.03958 0.321001 8.95084 0.306915C8.84378 0.288603 8.71559 0.267473 8.56346 0.247753C7.97183 0.167459 7.3985 0.429468 7.06888 0.929541C6.7477 1.41553 6.73221 2.02547 7.02803 2.51991C7.10269 2.64669 7.19566 2.7791 7.30835 2.92842C7.51824 3.20311 7.7887 3.43272 8.08874 3.5933C9.34667 4.26241 9.85097 3.50878 10.2975 2.84249C10.575 2.42835 10.861 2.00012 11.3343 1.80431C11.6611 1.66908 11.9414 1.51413 12.1879 1.3296C13.7529 0.16605 14.9334 0.9718 16.0758 1.75078C16.859 2.28466 17.5986 2.78896 18.3804 2.54527C19.103 2.31988 19.7256 1.4775 20.3398 -0.105822C20.3398 -0.108639 20.3426 -0.111454 20.3454 -0.112862C20.8835 -0.643925 21.0061 -0.577719 21.2258 -0.4608C21.4907 -0.318525 21.8513 -0.125542 22.6401 -0.455166C22.6429 -0.455166 22.6472 -0.456573 22.6514 -0.456573C23.3966 -0.377689 23.6741 -0.124132 23.9107 0.309732C23.9953 0.466093 24.0277 0.64922 23.9854 0.822483C23.9178 1.09295 23.7149 1.29156 23.4543 1.35214C23.2839 1.39299 23.1022 1.43384 22.9134 1.4761C21.1554 1.87475 20.0003 2.18324 19.9623 2.8115C19.9369 3.23269 20.4356 3.60457 21.5766 4.01449C21.5794 4.01449 21.5808 4.01731 21.5836 4.01872C22.0457 4.41173 22.2725 4.81179 22.2034 5.11887C22.1415 5.4006 21.8189 5.63444 21.2949 5.78235C21.2906 5.78235 21.2864 5.78235 21.2822 5.78235C20.7413 5.61754 20.2961 5.47244 19.9355 5.35553C18.3677 4.84559 18.0691 4.74699 17.0097 5.34708C17.0069 5.34848 17.0041 5.34989 17.0013 5.34989C15.5743 5.48372 14.9799 4.85546 14.4023 4.24974C13.6191 3.42567 12.8782 2.64669 10.4849 3.9835C10.4849 3.9835 10.4849 3.9835 10.4835 3.9835C9.59319 4.3737 8.9438 4.37651 8.42259 4.37792C7.44358 4.38215 6.94914 4.46667 6.5843 6.30214C6.5843 6.30637 6.58008 6.312 6.57726 6.31482C6.06733 6.72755 5.68277 6.95857 5.39963 7.13043C4.67276 7.56852 4.47837 7.73756 4.3868 9.03775C4.3868 9.05183 4.3868 9.07437 4.38821 9.08846C4.4037 9.21524 4.39244 9.45048 4.37835 9.72376C4.29806 11.3578 4.11071 15.1865 8.72686 15.65C8.75222 15.6528 8.77617 15.65 8.80152 15.6443C9.17059 15.5485 9.48331 15.457 9.7594 15.3767C10.6948 15.1034 11.123 14.9794 11.7639 15.2429C12.0978 15.3795 12.402 15.464 12.6964 15.4992C13.1867 15.5584 13.2585 15.7063 13.2162 16.0951C13.1205 16.9628 13.2923 17.7742 13.7149 18.4405C13.8783 18.6983 14.0488 18.918 14.215 19.1293C14.7263 19.7858 15.0644 20.2196 14.6742 21.117C14.2389 22.1171 14.1896 23.2116 14.5347 24.1991C14.8165 25.0034 15.2053 25.8852 15.549 26.6642C15.7927 27.2164 16.0223 27.7376 16.1871 28.1687C16.4435 28.8378 16.914 29.3702 17.5126 29.6647C17.831 29.8224 18.1324 29.8929 18.4198 29.8929C19.9369 29.8929 21.0526 27.8954 22.1387 25.9543C22.7275 24.902 23.336 23.8131 24.0023 23.0327C24.4249 22.5383 24.6672 21.9311 24.6855 21.3212C24.6939 21.0183 24.639 20.862 24.4925 20.445C24.4404 20.2957 24.3742 20.1069 24.2925 19.8618C24.2925 19.8618 24.2925 19.8604 24.2925 19.859C23.8586 17.8151 24.2488 17.5376 25.4011 16.7191C25.8307 16.4135 26.366 16.0331 26.9788 15.4711C27.2422 15.2288 27.4577 14.9315 27.6014 14.6118C27.8831 13.9863 27.9212 13.5835 27.7254 13.3017C27.4253 12.8693 26.6703 12.8862 25.5532 12.9623C25.4518 12.9693 25.349 12.9637 25.249 12.9468C25.2039 12.9397 25.1574 12.9327 25.1109 12.9256C24.377 12.8186 23.5459 12.6974 22.6429 7.76291C22.6429 7.75587 22.6429 7.74883 22.6486 7.7446C22.8289 7.54739 22.9261 7.53471 22.9613 7.53894C23.1656 7.56852 23.4205 8.17565 23.6445 8.71094C24.2488 10.1492 25.1602 12.3241 27.7211 11.9494C27.7366 11.9452 27.7521 11.941 27.7676 11.9382L27.9381 11.8762C28.9903 11.4973 29.5693 11.2874 30.299 9.54204C30.4807 9.10818 30.3765 8.6067 30.0412 8.29257C29.8524 8.11508 29.6947 8.08832 29.4777 8.0531C29.196 8.00661 28.7283 7.92773 27.6859 7.42906C27.6831 7.42906 27.6803 7.42625 27.6789 7.42343C27.2042 6.8811 27.1098 6.46977 27.2295 6.30073C27.3535 6.12747 27.7972 6.0838 28.5156 6.37539C28.517 6.37539 28.5199 6.3768 28.5213 6.37821C29.8905 7.39385 29.951 7.4192 31.3724 7.69671C31.6414 7.74883 31.9626 7.81222 32.3556 7.89392H32.3584C34.8616 8.80391 35.5842 10.9591 36.0646 12.3875C36.3337 13.189 36.5111 13.7187 36.9351 13.7596C37.4169 13.8046 37.9452 13.1595 39.12 11.1C39.6778 10.1196 40.2596 9.61952 40.8484 9.61248C40.8526 9.61248 40.8568 9.61248 40.8611 9.61248C42.1288 9.61248 43.4671 11.8367 44.5433 13.6257C45.4998 15.2161 46.2562 16.4726 47.007 16.5501C47.238 16.5754 47.4479 16.4895 47.6311 16.2965C47.6888 16.236 47.7099 16.1458 47.6846 16.0655C47.2873 14.785 46.8887 14.0962 46.6492 13.6835C46.5717 13.5497 46.4929 13.413 46.4717 13.3468C46.4689 13.3384 46.4717 13.3299 46.4788 13.3257C46.5055 13.306 46.5619 13.2736 46.6732 13.2257C46.6774 13.2243 46.6844 13.2229 46.6887 13.2257C47.4423 13.506 48.0917 13.1355 48.4114 12.6256C48.7382 12.1044 48.7819 11.3324 48.1382 10.7845C48.1269 10.7746 48.1142 10.7648 48.1044 10.7535C47.9226 10.5802 47.848 10.3295 47.9057 10.0745C47.9579 9.84068 48.1311 9.65333 48.3438 9.54486C49.0298 9.19552 49.6158 9.04338 50.1342 8.90956C51.2823 8.61233 52.112 8.39681 52.6219 6.33595C52.6275 6.31341 52.6304 6.28806 52.6289 6.26552C52.5839 5.48512 52.4768 4.9273 52.3979 4.51879C52.2543 3.76938 52.2162 3.56795 52.6839 3.19184C52.9008 3.01716 53.1882 2.96363 53.4347 3.04956C53.6573 3.12845 53.6897 3.24677 53.7474 3.46089L53.7587 3.50315C53.8756 3.93138 54.2489 4.20607 54.6997 4.18634C55.1392 4.16803 55.4871 3.86658 55.5674 3.43694C55.6167 3.1693 55.5674 2.97772 55.5195 2.79037C55.4688 2.59457 55.4209 2.40863 55.4843 2.0945C55.5533 1.74656 55.79 1.4437 56.1154 1.28452C58.7439 0.0026474 60.0469 -1.47362 59.9849 -3.09921C59.9694 -3.49645 59.7765 -3.8641 59.4525 -4.1078C58.9693 -4.47123 58.6664 -4.74874 58.6552 -5.00089C58.6439 -5.22486 58.8453 -5.51646 59.306 -5.94328C59.306 -5.94328 59.3088 -5.94609 59.3102 -5.94609C60.9118 -6.88285 61.5049 -6.72931 62.1317 -6.56731C62.7431 -6.40954 63.377 -6.24614 64.7814 -7.05893C65.497 -7.47307 67.1987 -7.84214 67.6241 -7.74776C67.6381 -7.74494 67.6438 -7.72804 67.6353 -7.71536C67.5395 -7.57872 67.1846 -7.21952 65.859 -6.45744C65.4449 -6.21937 65.1477 -5.81509 65.0434 -5.34742C64.8335 -4.40644 64.4236 -2.17936 65.1336 -1.83565C65.5787 -1.62012 66.1253 -2.19203 66.5056 -2.65548C66.5056 -2.65689 66.5084 -2.6583 66.5098 -2.65971C67.9424 -3.64154 68.1312 -4.08104 68.3678 -4.63746C68.5707 -5.11217 68.8228 -5.70381 70.0751 -6.92933C70.309 -7.15894 70.6034 -7.32235 70.9259 -7.40546C71.0541 -7.43786 71.1739 -7.46744 71.2837 -7.49561C72.56 -7.81397 72.8628 -7.89003 73.0995 -8.98878C73.1629 -9.2846 73.3432 -9.53253 73.5939 -9.67057C74.2335 -10.0227 74.7237 -9.87765 75.2421 -9.72269C75.9506 -9.5114 76.6831 -9.29165 77.5255 -10.5637C77.6621 -10.7693 77.6509 -11.0412 77.4987 -11.237V-11.2229Z" fill="#4C76BF"/>
<path d="M27.7144 21.3762C27.2186 21.0818 26.4114 21.5678 25.8733 22.2003C25.0549 23.1624 24.5816 24.6711 25.7113 26.022C25.7367 26.0515 25.7691 26.0741 25.8057 26.0868C26.1072 26.1896 26.348 26.2544 26.5452 26.2544C26.6664 26.2544 26.7706 26.2304 26.8636 26.1755C27.12 26.0234 27.1721 25.705 27.2524 25.2247C27.3313 24.7514 27.4383 24.1034 27.7708 23.2385C28.2441 22.0087 28.0018 21.5481 27.7158 21.3776L27.7144 21.3762Z" fill="#4C76BF"/>
</g>
</g>
<defs>
<clipPath id="clip0_10547_29633">
<rect width="32" height="32" rx="16" fill="white"/>
</clipPath>
</defs>
</svg>
