<svg width="32" height="32" viewBox="0 0 32 32" fill="none" xmlns="http://www.w3.org/2000/svg">
<g clip-path="url(#clip0_10547_29674)">
<circle cx="16" cy="16" r="18" fill="#9FCFF2"/>
<mask id="mask0_10547_29674" style="mask-type:alpha" maskUnits="userSpaceOnUse" x="0" y="0" width="32" height="32">
<circle cx="16" cy="16" r="16" fill="#9FCFF2"/>
</mask>
<g mask="url(#mask0_10547_29674)">
<path d="M28.6862 8.33276C28.6285 8.2581 28.5778 8.19189 28.5327 8.13414C28.1242 7.60166 28.0847 7.5749 27.4861 7.41995C27.3452 7.38332 27.1677 7.33684 26.9381 7.27063C26.9212 7.26781 26.9029 7.265 26.886 7.26218C25.0181 7.13963 24.6871 6.95368 24.3659 6.77197C24.0672 6.60434 23.7841 6.44516 22.622 6.35078C22.522 6.34233 22.4191 6.34796 22.3177 6.36768C19.73 6.85226 19.3469 6.88466 17.9847 6.13244C17.1536 5.67322 16.7634 5.6211 16.2239 5.54644C15.659 5.46896 14.8857 5.36331 13.1347 4.70266C13.1248 4.69984 13.1136 4.69702 13.1037 4.6928C10.6681 4.14483 9.71449 4.56461 9.0172 4.8717C8.42698 5.13089 8.07059 5.28725 6.99156 4.64913C5.142 3.5532 3.82772 3.82084 2.6684 4.05608C1.75137 4.24203 0.959702 4.40402 0.0426712 3.84479C-0.0221291 3.80534 -0.068615 3.73914 -0.0812912 3.66448C-0.0953789 3.59123 -0.0770683 3.51939 -0.0319939 3.46163C0.273685 3.0658 0.445545 3.01086 0.582188 2.96579C0.777988 2.9024 0.924488 2.82915 1.03014 2.46712C1.14283 2.07974 0.961113 1.6656 0.597679 1.48248C-1.00677 0.67391 -1.74632 1.01199 -2.97185 1.57263C-3.72548 1.91634 -4.66224 2.34457 -6.14273 2.67842C-6.14273 2.67842 -6.14413 2.67842 -6.14554 2.67842L-6.59208 2.71364C-8.66985 2.87845 -8.95299 2.90099 -10.4687 4.18568C-10.4715 4.18709 -10.4743 4.18991 -10.4771 4.18991C-11.5153 4.4491 -11.9915 4.68716 -12.1704 5.03228C-12.3352 5.35205 -12.2042 5.68026 -12.0534 6.05919C-11.8393 6.5987 -11.5717 7.26922 -11.8957 8.31163C-11.9309 8.42291 -12.0238 8.51165 -12.1394 8.54405C-12.769 8.71591 -13.1677 8.72154 -13.3255 8.55814C-13.4987 8.37924 -13.472 7.9172 -13.2466 7.18611C-13.1635 6.91847 -13.1451 6.63674 -13.1916 6.37191C-13.324 5.62814 -13.5945 5.20555 -13.9974 5.1168C-14.4439 5.0182 -14.9426 5.3605 -15.4807 6.13385C-15.5441 6.224 -15.6244 6.3043 -15.7216 6.37332C-16.5076 6.92269 -16.8076 6.86071 -17.264 6.76492C-18.1614 6.57616 -19.3911 6.31697 -24.3524 9.68506C-24.5102 9.79212 -24.6989 9.84142 -24.8877 9.82593C-25.6272 9.76395 -26.0977 9.50898 -26.3273 9.04553C-26.3625 8.97369 -26.3555 8.8934 -26.3062 8.83001C-26.2837 8.80043 -26.2174 8.73422 -26.1076 8.75676L-25.9822 8.78352C-25.2779 8.93425 -24.813 9.03426 -24.4904 8.24401C-24.3792 7.97214 -24.4045 7.66083 -24.5581 7.41431C-25.2736 6.25922 -26.1879 5.54926 -27.2725 5.30556C-28.9728 4.92382 -30.7604 5.76901 -31.9605 6.54517C-32.7085 7.02975 -33.4185 7.6721 -34.0679 8.45249C-34.6172 9.11315 -35.1849 9.51462 -35.6413 9.83579C-36.1513 10.1964 -36.5541 10.481 -36.5753 10.9331C-36.602 11.5177 -35.9808 12.2432 -34.0186 13.9167C-33.9876 13.9434 -33.9495 13.9617 -33.9101 13.9688C-33.2311 14.0956 -32.8438 14.0575 -32.617 13.842C-32.3451 13.5856 -32.4014 13.1616 -32.4648 12.6714C-32.5592 11.9516 -32.6761 11.0571 -32.0098 10.1246C-32.0098 10.1246 -32.0084 10.1217 -32.007 10.1203C-31.4421 9.58082 -31.0421 9.49912 -30.8702 9.59491C-30.6829 9.69915 -30.6336 10.0724 -30.742 10.5697C-30.8167 10.9106 -30.7885 11.2529 -30.6617 11.5614L-30.5984 11.7149C-30.2518 12.5489 -29.7278 13.811 -30.2828 14.4759C-30.7716 15.0619 -32.0352 15.1365 -34.0369 14.7013C-35.6146 14.3576 -36.0315 14.8013 -36.6626 15.4718C-36.8274 15.6479 -37.0148 15.8465 -37.2458 16.0536C-37.2472 16.055 -37.25 16.0564 -37.2514 16.0578C-37.7346 16.2776 -38.1501 16.4494 -38.4854 16.5861C-40.1082 17.2523 -40.3589 17.4158 -39.6842 19.2822C-39.6461 19.385 -39.6236 19.4935 -39.6137 19.6034C-39.6053 19.6935 -39.5954 19.8034 -39.5954 19.8795C-39.5954 19.8922 -39.6053 19.9006 -39.618 19.8992C-39.6828 19.8922 -39.7729 19.8767 -39.8617 19.8626C-39.9687 19.8443 -40.0969 19.8231 -40.249 19.8034C-40.8407 19.7231 -41.414 19.9851 -41.7436 20.4852C-42.0648 20.9712 -42.0803 21.5811 -41.7845 22.0756C-41.7098 22.2024 -41.6168 22.3348 -41.5042 22.4841C-41.2943 22.7588 -41.0238 22.9884 -40.7238 23.149C-39.4658 23.8181 -38.9615 23.0644 -38.515 22.3982C-38.2375 21.984 -37.9515 21.5558 -37.4782 21.36C-37.1514 21.2247 -36.8711 21.0698 -36.6246 20.8853C-35.0596 19.7217 -33.8791 20.5275 -32.7367 21.3064C-31.9535 21.8403 -31.2139 22.3446 -30.4321 22.1009C-29.7095 21.8755 -29.0869 21.0332 -28.4727 19.4498C-28.4727 19.447 -28.4699 19.4442 -28.4671 19.4428C-27.929 18.9117 -27.8064 18.9779 -27.5867 19.0949C-27.3218 19.2371 -26.9612 19.4301 -26.1724 19.1005C-26.1696 19.1005 -26.1653 19.0991 -26.1611 19.0991C-25.4159 19.178 -25.1384 19.4315 -24.9018 19.8654C-24.8172 20.0218 -24.7848 20.2049 -24.8271 20.3781C-24.8947 20.6486 -25.0976 20.8472 -25.3582 20.9078C-25.5286 20.9487 -25.7103 20.9895 -25.8991 21.0318C-27.6571 21.4304 -28.8122 21.7389 -28.8502 22.3672C-28.8756 22.7884 -28.3769 23.1602 -27.2359 23.5702C-27.2331 23.5702 -27.2317 23.573 -27.2289 23.5744C-26.7668 23.9674 -26.54 24.3675 -26.6091 24.6745C-26.671 24.9563 -26.9936 25.1901 -27.5176 25.338C-27.5219 25.338 -27.5261 25.338 -27.5303 25.338C-28.0712 25.1732 -28.5164 25.0281 -28.877 24.9112C-30.4448 24.4013 -30.7434 24.3027 -31.8028 24.9027C-31.8056 24.9041 -31.8084 24.9056 -31.8112 24.9056C-33.2382 25.0394 -33.8326 24.4111 -34.4102 23.8054C-35.1934 22.9813 -35.9343 22.2024 -38.3276 23.5392C-38.3276 23.5392 -38.3276 23.5392 -38.329 23.5392C-39.2193 23.9294 -39.8687 23.9322 -40.3899 23.9336C-41.3689 23.9378 -41.8634 24.0223 -42.2282 25.8578C-42.2282 25.862 -42.2324 25.8677 -42.2352 25.8705C-42.7452 26.2832 -43.1297 26.5142 -43.4129 26.6861C-44.1397 27.1242 -44.3341 27.2932 -44.4257 28.5934C-44.4257 28.6075 -44.4257 28.63 -44.4243 28.6441C-44.4088 28.7709 -44.4201 29.0061 -44.4341 29.2794C-44.5144 30.9135 -44.7018 34.7422 -40.0856 35.2056C-40.0603 35.2084 -40.0363 35.2056 -40.011 35.2C-39.6419 35.1042 -39.3292 35.0126 -39.0531 34.9324C-38.1177 34.6591 -37.6895 34.5351 -37.0486 34.7985C-36.7147 34.9352 -36.4105 35.0197 -36.1161 35.0549C-35.6258 35.1141 -35.554 35.262 -35.5963 35.6508C-35.692 36.5185 -35.5202 37.3299 -35.0976 37.9962C-34.9342 38.254 -34.7637 38.4737 -34.5975 38.685C-34.0862 39.3414 -33.7481 39.7753 -34.1383 40.6726C-34.5736 41.6728 -34.6229 42.7673 -34.2778 43.7547C-33.996 44.5591 -33.6072 45.4409 -33.2635 46.2199C-33.0198 46.7721 -32.7902 47.2933 -32.6254 47.7243C-32.369 48.3934 -31.8985 48.9259 -31.2999 49.2203C-30.9815 49.3781 -30.6801 49.4485 -30.3927 49.4485C-28.8756 49.4485 -27.7599 47.451 -26.6738 45.5099C-26.085 44.4577 -25.4765 43.3688 -24.8102 42.5884C-24.3876 42.0939 -24.1453 41.4868 -24.127 40.8769C-24.1186 40.574 -24.1735 40.4176 -24.32 40.0007C-24.3721 39.8514 -24.4383 39.6626 -24.52 39.4175C-24.52 39.4175 -24.52 39.4161 -24.52 39.4147C-24.9539 37.3707 -24.5637 37.0932 -23.4114 36.2748C-22.9818 35.9691 -22.4465 35.5888 -21.8337 35.0267C-21.5703 34.7844 -21.3548 34.4872 -21.2111 34.1674C-20.9294 33.542 -20.8913 33.1391 -21.0871 32.8574C-21.3872 32.4249 -22.1422 32.4419 -23.2593 32.5179C-23.3607 32.525 -23.4635 32.5193 -23.5635 32.5024C-23.6086 32.4954 -23.6551 32.4883 -23.7016 32.4813C-24.4355 32.3742 -25.2666 32.2531 -26.1696 27.3186C-26.1696 27.3115 -26.1696 27.3045 -26.1639 27.3003C-25.9836 27.1031 -25.8864 27.0904 -25.8512 27.0946C-25.6469 27.1242 -25.392 27.7313 -25.168 28.2666C-24.5637 29.7048 -23.6523 31.8798 -21.0914 31.5051C-21.0759 31.5009 -21.0604 31.4966 -21.0449 31.4938L-20.8744 31.4318C-19.8222 31.0529 -19.2432 30.843 -18.5135 29.0977C-18.3318 28.6638 -18.436 28.1624 -18.7713 27.8482C-18.9601 27.6707 -19.1178 27.644 -19.3348 27.6088C-19.6165 27.5623 -20.0842 27.4834 -21.1266 26.9847C-21.1294 26.9847 -21.1322 26.9819 -21.1336 26.9791C-21.6083 26.4368 -21.7027 26.0254 -21.583 25.8564C-21.459 25.6831 -21.0153 25.6395 -20.2969 25.9311C-20.2955 25.9311 -20.2926 25.9325 -20.2912 25.9339C-18.922 26.9495 -18.8615 26.9749 -17.4401 27.2524C-17.1711 27.3045 -16.8499 27.3679 -16.4569 27.4496H-16.4541C-13.9509 28.3596 -13.2283 30.5148 -12.7479 31.9432C-12.4788 32.7447 -12.3014 33.2744 -11.8774 33.3152C-11.3956 33.3603 -10.8673 32.7151 -9.69253 30.6557C-9.1347 29.6753 -8.55294 29.1752 -7.96412 29.1681C-7.95989 29.1681 -7.95566 29.1681 -7.95144 29.1681C-6.68365 29.1681 -5.34543 31.3924 -4.26921 33.1814C-3.31274 34.7718 -2.55629 36.0283 -1.80548 36.1058C-1.57446 36.1311 -1.36457 36.0452 -1.18145 35.8522C-1.1237 35.7916 -1.10257 35.7015 -1.12792 35.6212C-1.52516 34.3407 -1.92382 33.6519 -2.16328 33.2391C-2.24076 33.1053 -2.31964 32.9687 -2.34077 32.9025C-2.34359 32.894 -2.34077 32.8856 -2.33373 32.8814C-2.30696 32.8616 -2.25062 32.8292 -2.13933 32.7813C-2.13511 32.7799 -2.12807 32.7785 -2.12384 32.7813C-1.37021 33.0617 -0.720825 32.6912 -0.401058 32.1812C-0.0742531 31.66 -0.0305824 30.8881 -0.674339 30.3401C-0.685608 30.3303 -0.698284 30.3204 -0.708145 30.3092C-0.889862 30.1359 -0.964516 29.8851 -0.906761 29.6302C-0.854641 29.3963 -0.681377 29.209 -0.468674 29.1005C0.217342 28.7512 0.803345 28.599 1.32173 28.4652C2.46978 28.168 3.29947 27.9525 3.80941 25.8916C3.81504 25.8691 3.81786 25.8437 3.81645 25.8212C3.77137 25.0408 3.66432 24.483 3.58544 24.0745C3.44175 23.325 3.40372 23.1236 3.87139 22.7475C4.08832 22.5728 4.37569 22.5193 4.6222 22.6052C4.84477 22.6841 4.87717 22.8024 4.93492 23.0166L4.94619 23.0588C5.06311 23.487 5.4364 23.7617 5.88717 23.742C6.32667 23.7237 6.67461 23.4222 6.75491 22.9926C6.80421 22.725 6.7549 22.5334 6.70701 22.346C6.6563 22.1502 6.6084 21.9643 6.67179 21.6502C6.74081 21.3022 6.97747 20.9994 7.30286 20.8402C9.93141 19.5583 11.2344 18.082 11.1724 16.4565C11.1569 16.0592 10.964 15.6916 10.64 15.4479C10.1568 15.0844 9.85394 14.8069 9.84267 14.5548C9.8314 14.3308 10.0328 14.0392 10.4935 13.6124C10.4935 13.6124 10.4963 13.6096 10.4977 13.6096C12.0993 12.6728 12.6924 12.8264 13.3192 12.9884C13.9306 13.1461 14.5645 13.3095 15.9689 12.4967C16.6845 12.0826 18.3862 11.7135 18.8116 11.8079C18.8256 11.8107 18.8313 11.8276 18.8228 11.8403C18.727 11.9769 18.3721 12.3361 17.0465 13.0982C16.6324 13.3363 16.3352 13.7406 16.2309 14.2082C16.021 15.1492 15.6111 17.3763 16.3211 17.72C16.7662 17.9355 17.3128 17.3636 17.6931 16.9002C17.6931 16.8988 17.6959 16.8974 17.6973 16.896C19.1299 15.9141 19.3187 15.4746 19.5553 14.9182C19.7582 14.4435 20.0103 13.8519 21.2626 12.6263C21.4965 12.3967 21.7909 12.2333 22.1134 12.1502C22.2416 12.1178 22.3614 12.0882 22.4712 12.0601C23.7475 11.7417 24.0503 11.6656 24.287 10.5669C24.3504 10.2711 24.5307 10.0231 24.7814 9.88509C25.421 9.53293 25.9112 9.67802 26.4296 9.83297C27.1381 10.0443 27.8706 10.264 28.713 8.99201C28.8496 8.78634 28.8384 8.51447 28.6862 8.31867V8.33276Z" fill="#4C76BF"/>
<path d="M11.5333 3.66177C11.5333 3.66177 11.5417 3.66177 11.5473 3.66177C11.6403 3.66177 11.7319 3.64064 11.8122 3.59979C12.3545 3.32792 12.4221 3.03069 12.3827 2.82785C12.277 2.2827 11.3036 2.01365 10.5035 1.94885C10.2105 1.9249 9.94711 2.11084 9.87386 2.39117C9.80202 2.66304 9.84428 2.91378 9.99782 3.11803C10.3373 3.5688 11.1064 3.65191 11.5347 3.66177H11.5333Z" fill="#4C76BF"/>
<path d="M9.65705 22.1433C9.33587 22.1799 9.08936 22.2518 8.93723 22.7885C8.89919 22.9209 8.82593 23.042 8.71747 23.1266C8.59914 23.2181 8.49067 23.2505 8.39207 23.2801C8.06526 23.3773 7.93849 23.5323 7.94553 23.9098C7.95116 24.214 8.11739 24.4958 8.3794 24.6493C8.6245 24.7944 8.80481 24.862 8.95413 24.862C9.16684 24.862 9.31897 24.724 9.51336 24.4718C9.73452 24.1845 10.0585 23.7619 10.9657 23.3689C11.1826 23.2745 11.3531 23.097 11.4418 22.8772C12.0701 21.3009 12.58 20.815 12.8617 20.5473C13.0998 20.3205 13.1998 20.1726 13.1547 19.9106C13.097 19.5782 12.8336 19.3162 12.5067 19.2302C11.4672 18.9555 10.8305 18.9865 10.5177 19.3246C10.1332 19.7388 10.398 20.4248 10.5924 20.9248C10.5952 20.9319 10.598 20.9389 10.6008 20.946C10.684 21.1615 10.653 21.4052 10.5163 21.5911C10.1529 22.0856 9.88243 22.1166 9.65846 22.1419L9.65705 22.1433Z" fill="#4C76BF"/>
<path d="M4.76413 29.6426C4.62186 29.3707 4.58805 29.3383 4.30773 29.2017C4.25561 29.1763 4.19222 29.1453 4.11474 29.1059C4.07812 29.0876 4.03586 29.0791 3.9936 29.0847C3.91894 29.0932 3.85555 29.0988 3.80203 29.1045C3.34703 29.1453 3.29491 29.2693 3.28645 29.7412C3.28223 29.9778 3.2766 30.337 3.20476 30.9216C3.20053 30.954 3.20475 30.9864 3.21461 31.016C3.25264 31.1273 3.27942 31.2132 3.30196 31.2822C3.40197 31.6006 3.43295 31.6414 3.7175 31.8217C3.77103 31.857 3.83724 31.8978 3.92035 31.9542C3.95556 31.9781 3.99642 31.9894 4.03727 31.9894C4.06544 31.9894 4.09221 31.9837 4.11897 31.9725C4.20772 31.9358 4.27956 31.9077 4.34013 31.8851C4.69793 31.7471 4.75286 31.671 4.75991 31.3048C4.76413 31.0878 4.77118 30.7244 4.90922 30.0159C4.91909 29.9666 4.91064 29.9172 4.88669 29.8736C4.83316 29.7778 4.79512 29.7031 4.76413 29.6454V29.6426Z" fill="#4C76BF"/>
</g>
</g>
<defs>
<clipPath id="clip0_10547_29674">
<rect width="32" height="32" rx="16" fill="white"/>
</clipPath>
</defs>
</svg>
