<svg width="32" height="32" viewBox="0 0 32 32" fill="none" xmlns="http://www.w3.org/2000/svg">
<g clip-path="url(#clip0_10547_29716)">
<circle cx="16" cy="16" r="18" fill="#9FCFF2"/>
<mask id="mask0_10547_29716" style="mask-type:alpha" maskUnits="userSpaceOnUse" x="0" y="0" width="32" height="32">
<circle cx="16" cy="16" r="16" fill="#9FCFF2"/>
</mask>
<g mask="url(#mask0_10547_29716)">
<path d="M35.2621 26.5402C34.6403 25.9802 34.0604 25.4576 33.5224 24.9704C26.0987 18.2522 25.9333 18.1022 18.7609 20.6511C18.4699 20.6202 18.2384 20.6026 18.0532 20.5871C17.6401 20.5548 17.3351 20.4063 17.1382 20.1417C17.061 20.0403 16.9706 19.9168 16.8537 19.7691C16.146 17.2071 15.4184 16.8675 14.4681 16.6669C13.9411 16.5566 13.4825 16.4596 12.9401 15.3572C13.0019 14.0519 12.7792 13.3067 12.2368 13.0112C11.7252 12.7334 11.0263 12.9275 10.0959 13.6066C9.35943 14.0299 8.05857 14.6142 7.52059 13.8579C6.90764 12.9958 7.46767 10.7182 8.90083 9.47686C10.27 8.29065 11.9237 8.48908 13.5531 10.0325C15.4955 12.9297 16.3841 12.718 16.6773 12.6474C17.2308 12.5151 17.5637 11.9309 17.696 10.8615C17.7026 10.8042 17.6938 10.7424 17.6695 10.6873C16.7126 8.4979 16.8295 8.37664 17.9363 7.23452C18.1965 6.96553 18.4919 6.66126 18.8359 6.271C18.8778 6.2247 18.9042 6.16516 18.9153 6.10343C18.9572 5.85428 18.9814 5.65585 19.0035 5.49489C19.0549 5.0892 19.3901 4.61295 20.0089 4.06614C20.2757 3.83023 20.6108 3.53477 21.0341 3.14893C21.0937 3.09601 21.1312 3.02104 21.1422 2.94167C21.1885 2.55582 21.2105 2.26037 21.2304 2.02224C21.2502 1.75987 21.2723 1.49088 21.3097 1.44457C21.345 1.40709 21.5831 1.35417 21.7926 1.30567C22.0065 1.25716 22.2711 1.19983 22.615 1.10502C22.6305 1.09841 22.6481 1.094 22.6635 1.08739C25.2719 -0.0833931 24.9985 -1.37103 24.7978 -2.3125C24.703 -2.75788 24.6567 -3.02026 24.8155 -3.21428C25.2322 -3.73022 27.0909 -3.98157 30.4974 -3.98157C30.6319 -3.98157 30.7509 -4.06316 30.8038 -4.18663C30.8546 -4.3101 30.8259 -4.45341 30.7311 -4.54602C29.6948 -5.5823 29.1392 -6.80158 28.6012 -7.98118C27.6266 -10.1177 26.7072 -12.1373 23.045 -11.4913C22.2909 -11.8551 22.0903 -12.2255 21.894 -12.5849C21.517 -13.2794 21.1466 -13.6962 19.2372 -13.6234C19.1975 -13.6234 19.1534 -13.6124 19.1159 -13.5969C18.0532 -13.1405 17.535 -12.7459 17.3829 -12.2806C17.2308 -11.811 17.4777 -11.3987 17.7379 -10.9643C18.1789 -10.2257 18.7279 -9.30851 17.8195 -7.56006C16.9243 -6.26581 16.4039 -6.02547 16.1195 -6.05193C15.6234 -6.09823 15.2067 -7.0353 14.8032 -7.94149C14.629 -8.33175 14.4504 -8.73304 14.252 -9.10125C14.1881 -9.22031 14.058 -9.28866 13.9235 -9.27323C11.9942 -9.05274 9.89301 -8.88076 9.39251 -9.63923C9.08824 -10.1023 9.31313 -10.9996 10.0606 -12.3071C11.3614 -14.5847 12.9093 -14.9816 14.0381 -15.2726C14.7547 -15.4578 15.3721 -15.6166 15.6587 -16.1965C15.9784 -16.8447 15.7844 -17.9118 14.9664 -19.9205C14.7635 -20.421 14.2674 -20.7429 13.7295 -20.7319C11.787 -20.6922 11.3659 -20.4673 10.9403 -20.1189C10.5589 -19.808 10.087 -19.42 4.98941 -19.4156C1.31613 -20.9281 -0.121441 -20.2049 -1.27678 -19.6228C-2.53796 -18.9878 -3.54778 -18.4785 -7.49888 -21.3272C-7.98395 -21.6777 -8.5969 -21.81 -9.18339 -21.6844C-10.8348 -21.3294 -11.6572 -20.8333 -12.2834 -20.4562C-13.3021 -19.8411 -13.6857 -19.6118 -16.9864 -21.1486C-17.0305 -21.1684 -17.0768 -21.1794 -17.1253 -21.1794C-17.251 -21.1794 -17.7007 -21.2456 -18.2189 -21.3228C-22.891 -22.0129 -27.8497 -22.4516 -29.1946 -20.4761C-29.7216 -19.7022 -29.6158 -18.6593 -28.8772 -17.3761C-27.9401 -15.7489 -28.3811 -15.4248 -29.0491 -14.9331C-29.7238 -14.437 -30.6454 -13.7579 -30.0082 -11.7096C-29.9884 -11.6501 -29.9531 -11.5949 -29.9046 -11.5553C-25.8499 -8.15316 -25.4398 -7.87314 -24.2315 -9.10786C-23.6009 -9.75168 -22.547 -10.8276 -19.3897 -11.3987C-10.8723 -9.3526 -9.9154 -6.07398 -8.47122 -1.11967C-7.31808 2.83584 -5.88493 7.75707 0.0703831 13.547C0.123299 13.5999 0.193857 13.6308 0.268822 13.6396C3.22774 13.9307 3.46806 14.4995 3.77454 15.2183C4.05896 15.8908 4.41394 16.7264 6.45785 17.4584C6.47769 17.4628 6.49754 17.4695 6.51517 17.4739C11.7208 18.3426 12.6094 19.4781 13.5509 20.6819C14.1219 21.4139 14.7128 22.168 16.1945 22.8647C17.1911 23.9231 16.9728 24.6595 16.6465 25.7663C16.0997 27.6074 15.3522 30.1297 20.0309 35.3949C20.0552 35.4214 20.0816 35.4434 20.1125 35.4611C22.5819 36.9405 21.6096 42.0051 20.6659 46.9043C19.7774 51.5278 18.9373 55.8957 20.5601 58.1468C21.1267 58.934 21.969 59.4058 23.067 59.5535C23.0824 59.5535 23.0957 59.5557 23.1111 59.5557C23.2368 59.5557 23.3514 59.4852 23.4088 59.3705C23.5102 59.1611 23.5962 58.9957 23.6667 58.8612C24.0327 58.1534 24.0416 58.0674 23.8167 57.2935C23.7704 57.1326 23.713 56.9342 23.6469 56.6806C24.0283 55.221 24.3987 54.7976 24.7251 54.4228C25.0933 54.0017 25.4416 53.6026 25.6599 52.1805C25.6599 52.1518 25.6599 52.1187 25.6599 52.0901C25.4416 50.1123 26.4889 49.6449 27.5958 49.1488C28.5681 48.7122 29.6683 48.2206 29.3332 46.5956C29.6 45.4336 30.0718 45.3498 30.8479 45.2087C31.9746 45.0059 33.3747 44.7523 34.3448 41.2466C35.3988 40.2214 36.1462 39.8465 36.7503 39.5445C37.7778 39.0285 38.4569 38.6868 39.4094 36.1556C39.4138 36.1424 39.4182 36.1269 39.4226 36.1137C39.7556 34.7158 40.3663 33.5649 40.9065 32.5485C41.6231 31.1991 42.1897 30.1319 41.7113 29.1486C41.1623 28.0219 39.2925 27.2656 35.2665 26.5424L35.2621 26.5402Z" fill="#4C76BF"/>
<path d="M21.8889 14.155L20.5902 14.1043C20.4799 14.0999 20.3785 14.1484 20.3124 14.2344C19.6796 15.0678 19.8251 15.6763 20.0588 16.0401C20.4932 16.717 21.525 16.9926 22.3629 16.9926C22.5988 16.9926 22.8215 16.9706 23.0089 16.9287C23.7453 16.7655 23.9085 16.3731 23.9372 16.1526C24.0187 15.5617 23.3948 14.9201 22.03 14.1925C21.9859 14.1682 21.9374 14.155 21.8866 14.1528L21.8889 14.155Z" fill="#4C76BF"/>
</g>
</g>
<defs>
<clipPath id="clip0_10547_29716">
<rect width="32" height="32" rx="16" fill="white"/>
</clipPath>
</defs>
</svg>
