<svg width="32" height="32" viewBox="0 0 32 32" fill="none" xmlns="http://www.w3.org/2000/svg">
<g clip-path="url(#clip0_10547_29757)">
<circle cx="16" cy="16" r="18" fill="#9FCFF2"/>
<mask id="mask0_10547_29757" style="mask-type:alpha" maskUnits="userSpaceOnUse" x="0" y="0" width="32" height="32">
<circle cx="16" cy="16" r="16" fill="#9FCFF2"/>
</mask>
<g mask="url(#mask0_10547_29757)">
<path d="M3.46178 5.41461C3.59651 2.95827 3.79203 1.88044 3.89718 1.30209C4.02534 0.595588 4.01384 0.529867 3.64416 -0.101058C3.59487 -0.186496 3.53736 -0.285078 3.47164 -0.398448C3.55708 -0.869998 4.00234 -1.50421 4.43281 -2.12035C5.06538 -3.02237 5.6618 -3.87511 5.30362 -4.46496C5.00623 -4.95458 4.1535 -5.07945 2.54332 -4.8675C1.26833 -4.879 0.745846 -5.13203 0.192144 -5.3982C-1.12064 -6.03077 -2.47779 -6.68469 -12.193 -4.86914C-12.2013 -4.86914 -12.2095 -4.86586 -12.2177 -4.86257C-14.467 -4.20371 -14.863 -3.63687 -15.2113 -3.13738C-15.4692 -2.7677 -15.6911 -2.44895 -16.7837 -2.08091C-16.8133 -2.07106 -16.8412 -2.05463 -16.8658 -2.03327C-17.5888 -1.40727 -17.8648 -0.85521 -17.7071 -0.34587C-17.3965 0.66131 -15.4857 1.08357 -12.7122 1.40396C-11.5753 1.98724 -11.5375 2.23698 -11.4504 2.82683C-11.3814 3.29345 -11.2844 3.93423 -10.7061 4.96606C-10.6979 4.98085 -10.688 4.99399 -10.6765 5.00713C-9.52968 6.32156 -9.38181 6.48915 -9.78435 7.77565C-9.79093 7.79536 -9.79421 7.81343 -9.79586 7.83315C-9.87801 9.16401 -9.13207 11.4298 -7.72728 12.1001C-7.5104 12.2036 -7.24423 12.2825 -6.93534 12.2825C-6.45721 12.2825 -5.88215 12.0919 -5.24137 11.502C-5.21179 11.4741 -5.18879 11.4396 -5.17565 11.4018C-4.25555 8.78118 -3.69691 8.74339 -2.98877 8.6941C-2.42192 8.65467 -1.71542 8.60538 -0.783817 7.57848C0.0459137 6.9837 0.468176 6.95084 0.913439 6.91798C1.52136 6.87198 2.09642 6.82762 3.38456 5.57891C3.42892 5.53619 3.45521 5.47704 3.45849 5.41461H3.46178Z" fill="#4C76BF"/>
<path d="M5.7251 9.0011C5.7366 8.91895 5.74646 8.84666 5.75632 8.78094C5.8204 8.33239 5.8664 8.00871 5.40307 7.90684C4.9233 7.80169 4.39917 7.87234 3.92762 8.10565C2.5524 8.78751 1.80154 9.59752 1.86726 10.3287C1.90505 10.7345 2.19422 11.0516 2.64113 11.1798C2.7775 11.2192 2.92702 11.2389 3.08803 11.2389C3.77482 11.2389 4.64234 10.861 5.3472 9.92777C5.5493 9.65996 5.68074 9.33957 5.7251 9.0011Z" fill="#4C76BF"/>
<path d="M90.47 7.64423C90.4027 7.55715 90.3435 7.47993 90.291 7.41257C89.8145 6.7915 89.7685 6.76028 89.0702 6.57955C88.9059 6.53683 88.6989 6.48261 88.431 6.40539C88.4113 6.4021 88.39 6.39881 88.3702 6.39553C86.1916 6.25258 85.8055 6.03571 85.4309 5.82375C85.0825 5.62823 84.7523 5.44257 83.3968 5.33249C83.2801 5.32263 83.1602 5.3292 83.0419 5.3522C80.0236 5.91741 79.5767 5.9552 77.9879 5.07782C77.0185 4.54219 76.5634 4.4814 75.9341 4.39431C75.2753 4.30395 74.3732 4.18072 72.331 3.41014C72.3195 3.40685 72.3063 3.40357 72.2948 3.39864C69.454 2.7595 68.3417 3.24912 67.5284 3.6073C66.8399 3.90962 66.4243 4.092 65.1657 3.3477C63.0084 2.06942 61.4754 2.3816 60.1232 2.65599C59.0536 2.87287 58.1302 3.06181 57.0606 2.40953C56.985 2.36353 56.9308 2.2863 56.916 2.19922C56.8996 2.11378 56.9209 2.02999 56.9735 1.96263C57.3301 1.50093 57.5305 1.43686 57.6899 1.38428C57.9183 1.31034 58.0891 1.2249 58.2124 0.802644C58.3438 0.35081 58.1319 -0.132241 57.708 -0.345835C55.8365 -1.28894 54.9739 -0.894609 53.5445 -0.240681C52.6655 0.160219 51.5729 0.659701 49.846 1.0491C49.846 1.0491 49.8444 1.0491 49.8428 1.0491L49.3219 1.09018C46.8984 1.28241 46.5682 1.3087 44.8003 2.80714C44.797 2.80879 44.7937 2.81207 44.7904 2.81207C43.5795 3.11439 43.0242 3.39206 42.8155 3.79461C42.6233 4.16758 42.7761 4.5504 42.9519 4.99238C43.2016 5.62166 43.5138 6.40374 43.1359 7.61959C43.0948 7.74939 42.9864 7.8529 42.8517 7.89069C42.1172 8.09114 41.6522 8.09771 41.4682 7.90712C41.2661 7.69845 41.2973 7.15954 41.5602 6.30681C41.6572 5.99463 41.6785 5.66602 41.6243 5.35713C41.4699 4.48961 41.1544 3.9967 40.6845 3.89319C40.1637 3.77818 39.582 4.17743 38.9544 5.07946C38.8804 5.18461 38.7868 5.27827 38.6734 5.35878C37.7566 5.99956 37.4066 5.92726 36.8743 5.81554C35.8277 5.59537 34.3933 5.29305 28.6066 9.22155C28.4225 9.34642 28.2024 9.40392 27.9822 9.38585C27.1196 9.31356 26.5708 9.01617 26.303 8.47561C26.2619 8.39181 26.2702 8.29816 26.3277 8.22423C26.354 8.18972 26.4312 8.1125 26.5593 8.13879L26.7056 8.17C27.5271 8.34581 28.0693 8.46246 28.4455 7.54072C28.5753 7.22362 28.5458 6.86051 28.3667 6.57298C27.532 5.22569 26.4657 4.3976 25.2005 4.11336C23.2174 3.66809 21.1324 4.65391 19.7325 5.55923C18.8601 6.12443 18.032 6.87365 17.2746 7.78389C16.6338 8.55447 15.9716 9.02274 15.4393 9.39735C14.8445 9.81797 14.3746 10.1499 14.3499 10.6773C14.3187 11.3591 15.0433 12.2053 17.3321 14.1572C17.3682 14.1884 17.4126 14.2098 17.4586 14.218C18.2505 14.3659 18.7023 14.3215 18.9669 14.0701C19.284 13.7711 19.2183 13.2766 19.1443 12.7048C19.0342 11.8652 18.8979 10.8219 19.675 9.73417C19.675 9.73417 19.6767 9.73089 19.6783 9.72924C20.3372 9.09996 20.8038 9.00467 21.0042 9.11639C21.2228 9.23798 21.2803 9.67338 21.1537 10.2534C21.0667 10.651 21.0995 11.0502 21.2474 11.4101L21.3213 11.5892C21.7255 12.5618 22.3367 14.034 21.6894 14.8095C21.1192 15.493 19.6454 15.5801 17.3107 15.0724C15.4705 14.6715 14.9842 15.189 14.2481 15.9711C14.0558 16.1765 13.8373 16.4082 13.5679 16.6497C13.5662 16.6513 13.5629 16.653 13.5613 16.6546C12.9977 16.9109 12.513 17.1114 12.122 17.2708C10.2292 18.0479 9.93676 18.2385 10.7238 20.4155C10.7681 20.5355 10.7944 20.662 10.8059 20.7901C10.8158 20.8953 10.8273 21.0235 10.8273 21.1122C10.8273 21.127 10.8158 21.1368 10.801 21.1352C10.7254 21.127 10.6203 21.1089 10.5168 21.0925C10.3919 21.0711 10.2424 21.0465 10.0649 21.0235C9.37485 20.9298 8.70613 21.2354 8.32166 21.8187C7.94705 22.3855 7.92898 23.097 8.27401 23.6737C8.36109 23.8215 8.46953 23.976 8.60098 24.1501C8.84579 24.4705 9.16125 24.7384 9.51122 24.9257C10.9784 25.7061 11.5667 24.8271 12.0875 24.0499C12.4112 23.5669 12.7447 23.0674 13.2968 22.839C13.6779 22.6813 14.0049 22.5005 14.2924 22.2853C16.1179 20.9282 17.4947 21.868 18.8272 22.7766C19.7407 23.3993 20.6033 23.9875 21.5152 23.7032C22.3581 23.4404 23.0843 22.4578 23.8007 20.6111C23.8007 20.6078 23.804 20.6045 23.8072 20.6028C24.4349 19.9834 24.5778 20.0606 24.8341 20.197C25.143 20.363 25.5637 20.588 26.4838 20.2036C26.487 20.2036 26.492 20.2019 26.4969 20.2019C27.3661 20.2939 27.6897 20.5897 27.9658 21.0957C28.0643 21.2781 28.1021 21.4917 28.0528 21.6938C27.974 22.0093 27.7374 22.2409 27.4334 22.3116C27.2346 22.3592 27.0227 22.4069 26.8025 22.4562C24.752 22.9212 23.4047 23.281 23.3603 24.0138C23.3308 24.505 23.9124 24.9388 25.2433 25.4169C25.2465 25.4169 25.2482 25.4202 25.2515 25.4219C25.7904 25.8803 26.0549 26.3469 25.9744 26.7051C25.9021 27.0337 25.5259 27.3064 24.9147 27.4789C24.9097 27.4789 24.9048 27.4789 24.8999 27.4789C24.2689 27.2867 23.7497 27.1175 23.3291 26.9811C21.5004 26.3863 21.1521 26.2713 19.9165 26.9712C19.9133 26.9729 19.91 26.9745 19.9067 26.9745C18.2423 27.1306 17.5489 26.3978 16.8753 25.6913C15.9618 24.7301 15.0975 23.8215 12.306 25.3808C12.306 25.3808 12.306 25.3808 12.3044 25.3808C11.266 25.8359 10.5085 25.8392 9.90062 25.8408C8.75871 25.8458 8.182 25.9443 7.75645 28.0852C7.75645 28.0901 7.75153 28.0967 7.74824 28.1C7.15346 28.5814 6.70492 28.8509 6.37467 29.0513C5.52686 29.5623 5.30012 29.7595 5.19333 31.276C5.19333 31.2924 5.19332 31.3187 5.19497 31.3351C5.21304 31.483 5.1999 31.7574 5.18347 32.0761C5.08982 33.9821 4.87129 38.4478 10.2555 38.9884C10.2851 38.9917 10.313 38.9884 10.3426 38.9818C10.7731 38.8701 11.1378 38.7633 11.4599 38.6696C12.5508 38.3509 13.0503 38.2063 13.7979 38.5135C14.1873 38.6729 14.5422 38.7715 14.8856 38.8126C15.4574 38.8816 15.5411 39.0541 15.4919 39.5076C15.3801 40.5197 15.5806 41.4661 16.0735 42.2432C16.2641 42.5439 16.4629 42.8002 16.6568 43.0467C17.2532 43.8123 17.6475 44.3184 17.1924 45.365C16.6847 46.5315 16.6272 47.8082 17.0297 48.9599C17.3583 49.8981 17.8118 50.9267 18.2127 51.8353C18.497 52.4793 18.7648 53.0872 18.957 53.59C19.256 54.3705 19.8048 54.9915 20.5031 55.3349C20.8744 55.5189 21.226 55.6011 21.5612 55.6011C23.3308 55.6011 24.6321 53.2713 25.8988 51.0072C26.5856 49.7798 27.2954 48.5098 28.0726 47.5995C28.5655 47.0228 28.8481 46.3147 28.8694 45.6032C28.8793 45.25 28.8152 45.0676 28.6443 44.5813C28.5835 44.4071 28.5063 44.1869 28.411 43.9011C28.411 43.9011 28.411 43.8994 28.411 43.8978C27.905 41.5137 28.3601 41.19 29.7041 40.2354C30.2052 39.8789 30.8296 39.4353 31.5443 38.7797C31.8515 38.4971 32.1029 38.1504 32.2705 37.7775C32.5991 37.048 32.6435 36.578 32.4151 36.2494C32.0651 35.745 31.1845 35.7647 29.8815 35.8535C29.7633 35.8617 29.6433 35.8551 29.5266 35.8354C29.4741 35.8272 29.4199 35.819 29.3656 35.8108C28.5096 35.6859 27.5402 35.5446 26.487 29.789C26.487 29.7808 26.487 29.7726 26.4936 29.7677C26.7039 29.5377 26.8173 29.5229 26.8584 29.5278C27.0966 29.5623 27.394 30.2704 27.6552 30.8948C28.3601 32.5723 29.4231 35.1092 32.4102 34.6721C32.4282 34.6672 32.4463 34.6623 32.4644 34.659L32.6632 34.5867C33.8905 34.1447 34.5658 33.8999 35.4169 31.8642C35.6289 31.3581 35.5073 30.7732 35.1162 30.4068C34.8961 30.1998 34.7121 30.1686 34.459 30.1275C34.1304 30.0733 33.5849 29.9813 32.3691 29.3996C32.3658 29.3996 32.3625 29.3964 32.3609 29.3931C31.8072 28.7605 31.6971 28.2807 31.8368 28.0836C31.9813 27.8815 32.4989 27.8305 33.3368 28.1706C33.3385 28.1706 33.3418 28.1723 33.3434 28.1739C34.9404 29.3586 35.0111 29.3881 36.6689 29.7118C36.9827 29.7726 37.3573 29.8465 37.8158 29.9418H37.819C40.7387 31.0032 41.5816 33.5171 42.1419 35.1831C42.4557 36.118 42.6627 36.7358 43.1573 36.7834C43.7192 36.836 44.3353 36.0835 45.7056 33.6814C46.3562 32.5378 47.0348 31.9546 47.7216 31.9463C47.7265 31.9463 47.7315 31.9463 47.7364 31.9463C49.2151 31.9463 50.776 34.5407 52.0313 36.6273C53.1469 38.4823 54.0292 39.9479 54.9049 40.0383C55.1744 40.0679 55.4192 39.9676 55.6328 39.7425C55.7002 39.6719 55.7248 39.5667 55.6952 39.4731C55.2319 37.9796 54.7669 37.1761 54.4876 36.6947C54.3972 36.5386 54.3052 36.3792 54.2806 36.302C54.2773 36.2922 54.2806 36.2823 54.2888 36.2774C54.32 36.2544 54.3857 36.2166 54.5155 36.1607C54.5205 36.1591 54.5287 36.1574 54.5336 36.1607C55.4126 36.4877 56.1701 36.0556 56.543 35.4608C56.9242 34.8529 56.9752 33.9525 56.2243 33.3133C56.2112 33.3018 56.1964 33.2903 56.1849 33.2772C55.9729 33.0751 55.8858 32.7826 55.9532 32.4853C56.014 32.2125 56.2161 31.994 56.4642 31.8675C57.2643 31.46 57.9478 31.2826 58.5525 31.1265C59.8916 30.7798 60.8593 30.5284 61.4541 28.1246C61.4606 28.0984 61.4639 28.0688 61.4623 28.0425C61.4097 27.1323 61.2848 26.4816 61.1928 26.0051C61.0252 25.131 60.9809 24.8961 61.5264 24.4574C61.7794 24.2537 62.1146 24.1912 62.4021 24.2914C62.6617 24.3835 62.6995 24.5215 62.7669 24.7712L62.78 24.8205C62.9164 25.32 63.3518 25.6404 63.8775 25.6174C64.3902 25.596 64.796 25.2444 64.8897 24.7433C64.9472 24.4311 64.8897 24.2077 64.8338 23.9891C64.7746 23.7607 64.7188 23.5439 64.7927 23.1775C64.8732 22.7716 65.1493 22.4184 65.5288 22.2327C68.5947 20.7376 70.1145 19.0157 70.0422 17.1196C70.0241 16.6563 69.799 16.2274 69.4211 15.9432C68.8576 15.5193 68.5043 15.1956 68.4912 14.9015C68.478 14.6403 68.713 14.3002 69.2503 13.8023C69.2503 13.8023 69.2535 13.799 69.2552 13.799C71.1233 12.7064 71.815 12.8855 72.5462 13.0745C73.2593 13.2585 73.9986 13.4491 75.6367 12.501C76.4714 12.018 78.4562 11.5875 78.9524 11.6976C78.9688 11.7009 78.9754 11.7206 78.9655 11.7354C78.8538 11.8948 78.4398 12.3137 76.8937 13.2026C76.4106 13.4803 76.0639 13.9518 75.9423 14.4973C75.6975 15.5949 75.2194 18.1925 76.0475 18.5934C76.5667 18.8448 77.2042 18.1777 77.6478 17.6372C77.6478 17.6355 77.6511 17.6339 77.6527 17.6322C79.3237 16.487 79.5439 15.9744 79.8199 15.3254C80.0565 14.7717 80.3506 14.0816 81.8113 12.6522C82.084 12.3844 82.4274 12.1938 82.8036 12.0969C82.9532 12.0591 83.0928 12.0246 83.221 11.9917C84.7096 11.6204 85.0628 11.5317 85.3388 10.2501C85.4128 9.90505 85.6231 9.61587 85.9156 9.45486C86.6615 9.0441 87.2333 9.21333 87.8379 9.39406C88.6644 9.64052 89.5187 9.89683 90.5013 8.41317C90.6606 8.17329 90.6475 7.85618 90.47 7.6278V7.64423Z" fill="#4C76BF"/>
<path d="M16.463 -2.00063C16.463 -1.95298 16.4794 -1.90862 16.5057 -1.86919C17.5392 -0.355954 17.9368 0.132027 18.364 0.132027C18.5004 0.132027 18.6417 0.0810928 18.806 -0.00105906C18.8832 -0.0388486 18.9621 -0.0799243 19.0574 -0.114428C19.0804 -0.122643 19.1001 -0.134145 19.1198 -0.147289C19.6899 -0.569548 20.6922 -0.825862 21.4989 -1.03124C22.511 -1.2892 23.1222 -1.44529 23.1354 -1.88398C23.1469 -2.25694 22.7493 -2.58719 20.6281 -3.26084C20.6018 -3.26905 20.5739 -3.27234 20.5443 -3.27234C19.4435 -3.23291 18.6614 -3.24276 18.0913 -3.25098C17.1761 -3.26248 16.8343 -3.26577 16.6158 -3.04231C16.4318 -2.85337 16.4416 -2.58884 16.4564 -2.18794L16.463 -1.99899V-2.00063Z" fill="#4C76BF"/>
<path d="M10.2419 16.4751C10.2928 16.4866 10.3454 16.4948 10.4013 16.4948C10.6773 16.4948 11.0092 16.3174 11.2573 15.629C11.2622 15.6158 11.2655 15.601 11.2688 15.5862C11.5218 14.0796 11.0076 13.4404 10.5327 13.1693C10.0102 12.8719 9.37603 12.9377 9.21994 13.0707C9.2068 13.0822 9.19365 13.0954 9.18379 13.1102C9.04085 13.1874 8.89626 13.3501 8.85683 13.6852C8.75989 14.5232 9.43517 16.2845 10.2435 16.4735L10.2419 16.4751Z" fill="#4C76BF"/>
<path d="M7.26167 17.7599C7.46212 17.8946 7.63628 17.9357 7.77429 17.9357C7.83673 17.9357 7.89095 17.9274 7.93696 17.9159C8.07497 17.8814 8.27049 17.7829 8.41344 17.5118C8.54323 17.2686 8.54652 16.9712 8.42329 16.7149C8.17519 16.2006 7.89095 15.9525 7.57713 15.9755C7.27974 15.9985 7.03821 16.2647 6.89691 16.7231C6.77697 17.1158 6.9232 17.5315 7.26002 17.7582L7.26167 17.7599Z" fill="#4C76BF"/>
</g>
</g>
<defs>
<clipPath id="clip0_10547_29757">
<rect width="32" height="32" rx="16" fill="white"/>
</clipPath>
</defs>
</svg>
