<svg width="32" height="32" viewBox="0 0 32 32" fill="none" xmlns="http://www.w3.org/2000/svg">
<g clip-path="url(#clip0_10547_29592)">
<circle cx="16" cy="16" r="18" fill="#9FCFF2"/>
<mask id="mask0_10547_29592" style="mask-type:alpha" maskUnits="userSpaceOnUse" x="0" y="0" width="32" height="32">
<circle cx="16" cy="16" r="16" fill="#9FCFF2"/>
</mask>
<g mask="url(#mask0_10547_29592)">
<path d="M6.8218 21.8271C6.58 21.6093 6.35449 21.4061 6.14527 21.2166C3.25826 18.604 3.19395 18.5457 0.404678 19.5369C0.291496 19.5249 0.201466 19.518 0.12944 19.512C-0.0311871 19.4994 -0.149801 19.4417 -0.2264 19.3388C-0.256411 19.2994 -0.291565 19.2513 -0.337009 19.1939C-0.612249 18.1975 -0.895208 18.0655 -1.26477 17.9875C-1.4697 17.9446 -1.64804 17.9069 -1.85897 17.4781C-1.83497 16.9705 -1.92157 16.6807 -2.1325 16.5658C-2.33143 16.4578 -2.60324 16.5332 -2.96508 16.7973C-3.25147 16.962 -3.75736 17.1892 -3.96657 16.8951C-4.20494 16.5598 -3.98715 15.6741 -3.42982 15.1913C-2.89734 14.73 -2.25426 14.8072 -1.62061 15.4074C-0.865196 16.5341 -0.519646 16.4518 -0.405605 16.4243C-0.190388 16.3729 -0.0609131 16.1457 -0.00946617 15.7298C-0.00689507 15.7075 -0.0103245 15.6835 -0.0197563 15.6621C-0.391888 14.8106 -0.346443 14.7635 0.0839939 14.3193C0.185173 14.2147 0.30007 14.0964 0.433832 13.9446C0.450123 13.9266 0.460413 13.9035 0.464701 13.8794C0.480991 13.7825 0.490425 13.7054 0.498999 13.6428C0.519005 13.485 0.649338 13.2998 0.889994 13.0872C0.993744 12.9954 1.12407 12.8805 1.2887 12.7305C1.31186 12.7099 1.32643 12.6807 1.33072 12.6499C1.34873 12.4998 1.3573 12.3849 1.36502 12.2923C1.37273 12.1903 1.38131 12.0857 1.39589 12.0677C1.40961 12.0531 1.50221 12.0325 1.58367 12.0136C1.66684 11.9948 1.76973 11.9725 1.90349 11.9356C1.90949 11.933 1.91636 11.9313 1.92236 11.9288C2.93671 11.4735 2.83039 10.9727 2.75236 10.6066C2.71549 10.4334 2.69749 10.3313 2.75922 10.2559C2.92128 10.0552 3.6441 9.95749 4.96886 9.95749C5.02116 9.95749 5.06746 9.92576 5.08804 9.87775C5.10777 9.82973 5.09662 9.77399 5.05975 9.73798C4.65675 9.33498 4.44067 8.86082 4.23145 8.40208C3.85246 7.57122 3.49491 6.7858 2.0707 7.03703C1.77745 6.89555 1.69942 6.7515 1.62311 6.61174C1.47649 6.34164 1.33244 6.17959 0.589888 6.20788C0.574453 6.20788 0.557304 6.21217 0.542728 6.21817C0.12944 6.39566 -0.0720596 6.54914 -0.131224 6.73007C-0.190388 6.9127 -0.0943546 7.07304 0.00682449 7.24196C0.178314 7.5292 0.391817 7.8859 0.0385494 8.56585C-0.309572 9.06917 -0.511929 9.16264 -0.62254 9.15235C-0.815464 9.13434 -0.977522 8.76993 -1.13443 8.41752C-1.20217 8.26575 -1.27163 8.10969 -1.34879 7.9665C-1.37366 7.9202 -1.42425 7.89362 -1.47655 7.89962C-2.22682 7.98536 -3.04397 8.05225 -3.23861 7.75728C-3.35693 7.57722 -3.26947 7.22824 -2.9788 6.71978C-2.47291 5.83404 -1.87098 5.6797 -1.43197 5.56651C-1.1533 5.49449 -0.913214 5.43275 -0.801744 5.20724C-0.677416 4.95515 -0.752871 4.54015 -1.07098 3.75902C-1.14987 3.56438 -1.34279 3.43919 -1.55201 3.44348C-2.30742 3.45891 -2.47119 3.54637 -2.63668 3.68185C-2.78502 3.80275 -2.96851 3.95366 -4.95092 3.95537C-6.37943 3.36717 -6.93848 3.64841 -7.38778 3.87477C-7.87824 4.12172 -8.27095 4.31979 -9.80749 3.21197C-9.99613 3.07563 -10.2345 3.02419 -10.4626 3.07306C-11.1048 3.21111 -11.4246 3.40404 -11.6681 3.55066C-12.0643 3.78989 -12.2135 3.87906 -13.4971 3.28142C-13.5142 3.2737 -13.5322 3.26942 -13.5511 3.26942C-13.6 3.26942 -13.7749 3.24369 -13.9764 3.21368C-15.7933 2.9453 -17.7217 2.77467 -18.2447 3.54294C-18.4497 3.84391 -18.4085 4.24948 -18.1213 4.74851C-17.7569 5.3813 -17.9284 5.50735 -18.1882 5.69856C-18.4505 5.89148 -18.8089 6.15558 -18.5611 6.95214C-18.5534 6.9753 -18.5397 6.99673 -18.5208 7.01217C-16.944 8.3352 -16.7845 8.4441 -16.3146 7.96393C-16.0694 7.71355 -15.6596 7.29512 -14.4317 7.07304C-11.1194 7.86875 -10.7473 9.14377 -10.1856 11.0705C-9.73718 12.6087 -9.17984 14.5225 -6.86388 16.7742C-6.8433 16.7948 -6.81586 16.8068 -6.78671 16.8102C-5.63602 16.9234 -5.54256 17.1446 -5.42337 17.4241C-5.31276 17.6856 -5.17472 18.0106 -4.37986 18.2953C-4.37215 18.297 -4.36443 18.2996 -4.35757 18.3013C-2.33314 18.6391 -1.98759 19.0807 -1.62146 19.5489C-1.39939 19.8335 -1.16959 20.1268 -0.593388 20.3977C-0.205822 20.8093 -0.290709 21.0957 -0.41761 21.5261C-0.630257 22.2421 -0.920931 23.223 0.898567 25.2706C0.907999 25.2809 0.918289 25.2895 0.930294 25.2963C1.89063 25.8717 1.5125 27.8412 1.14551 29.7465C0.799961 31.5445 0.473274 33.2431 1.10435 34.1186C1.32472 34.4247 1.65226 34.6082 2.07927 34.6656C2.08527 34.6656 2.09042 34.6665 2.09642 34.6665C2.14529 34.6665 2.18988 34.639 2.21217 34.5945C2.25162 34.513 2.28506 34.4487 2.31249 34.3964C2.45483 34.1211 2.45826 34.0877 2.3708 33.7867C2.35279 33.7241 2.3305 33.647 2.30478 33.5484C2.45312 32.9807 2.59717 32.8161 2.72407 32.6703C2.86726 32.5066 3.00274 32.3514 3.08763 31.7983C3.08763 31.7872 3.08763 31.7743 3.08763 31.7632C3.00274 30.994 3.41002 30.8123 3.84046 30.6193C4.21859 30.4496 4.64646 30.2584 4.51613 29.6264C4.61988 29.1745 4.80337 29.142 5.10519 29.0871C5.54334 29.0082 6.08782 28.9096 6.4651 27.5463C6.87496 27.1475 7.16563 27.0018 7.40057 26.8843C7.80014 26.6837 8.06424 26.5508 8.43465 25.5664C8.43637 25.5613 8.43808 25.5553 8.4398 25.5501C8.56927 25.0065 8.80678 24.5589 9.01686 24.1636C9.29552 23.6389 9.51589 23.2239 9.32982 22.8415C9.11632 22.4033 8.38921 22.1092 6.82351 21.828L6.8218 21.8271Z" fill="#4C76BF"/>
<path d="M12.3861 3.40565C12.4564 2.12377 12.5585 1.56129 12.6134 1.25947C12.6802 0.890765 12.6742 0.856467 12.4813 0.527209C12.4556 0.482621 12.4256 0.431175 12.3913 0.372011C12.4359 0.125924 12.6682 -0.20505 12.8929 -0.526592C13.223 -0.997329 13.5343 -1.44234 13.3473 -1.75017C13.1921 -2.00568 12.7471 -2.07085 11.9068 -1.96024C11.2414 -1.96624 10.9688 -2.09829 10.6798 -2.23719C9.99472 -2.56731 9.28647 -2.90857 4.2164 -1.9611C4.21211 -1.9611 4.20783 -1.95938 4.20354 -1.95767C3.0297 -1.61383 2.82305 -1.31801 2.64127 -1.05735C2.50665 -0.864425 2.3909 -0.698081 1.8207 -0.506013C1.80526 -0.500868 1.79069 -0.492294 1.77783 -0.481147C1.40055 -0.15446 1.2565 0.133641 1.33881 0.399449C1.50087 0.925063 2.49808 1.14543 3.94545 1.31263C4.5388 1.61702 4.55852 1.74735 4.60397 2.05518C4.63998 2.29869 4.69057 2.63309 4.99239 3.17157C4.99668 3.17929 5.00182 3.18615 5.00782 3.19301C5.60632 3.87896 5.68349 3.96642 5.47341 4.6378C5.46999 4.64809 5.46827 4.65752 5.46741 4.66781C5.42454 5.36234 5.81382 6.54476 6.54694 6.8946C6.66012 6.94861 6.79902 6.98977 6.96022 6.98977C7.20974 6.98977 7.50985 6.89031 7.84425 6.58249C7.85968 6.56791 7.87169 6.5499 7.87855 6.53018C8.35872 5.16256 8.65025 5.14284 9.01981 5.11711C9.31563 5.09653 9.68433 5.07081 10.1705 4.53491C10.6035 4.22451 10.8239 4.20736 11.0562 4.19021C11.3735 4.1662 11.6736 4.14305 12.3458 3.4914C12.369 3.4691 12.3827 3.43823 12.3844 3.40565H12.3861Z" fill="#4C76BF"/>
<path d="M-3.00731 -0.446518C-2.6952 -0.370205 -2.30592 -0.275886 -1.79146 0.0748088C-1.78803 0.0773814 -1.7846 0.0790963 -1.78117 0.0808113C-1.28214 0.356051 -0.904859 0.548119 -0.588462 0.548119C-0.511292 0.548119 -0.438409 0.536972 -0.368098 0.512106C-0.132301 0.430649 0.0511928 0.212857 0.224397 -0.190999C0.618822 -0.616292 1.02954 -0.790353 1.39224 -0.943836C1.86812 -1.14534 2.27883 -1.32025 2.42374 -1.95734C2.43232 -1.99421 2.42374 -2.03365 2.40059 -2.06366C2.12621 -2.42464 1.65461 -2.63129 1.03554 -2.66301C-0.0148311 -2.71532 -1.31558 -2.24629 -1.9458 -1.59206C-2.4011 -1.43086 -2.54601 -1.47031 -2.71407 -1.51575C-2.90957 -1.56891 -3.13164 -1.62893 -3.73014 -1.44201C-3.7893 -1.42315 -3.82703 -1.3657 -3.81931 -1.30396C-3.73786 -0.626581 -3.43175 -0.551983 -3.00731 -0.448233V-0.446518Z" fill="#4C76BF"/>
<path d="M-0.516486 2.18222C-0.657964 2.25682 -0.737707 2.39058 -0.741994 2.56121C-0.752284 2.96249 -0.350999 3.47439 0.25693 3.83966C0.550176 4.18349 0.620487 4.4776 0.687368 4.76227C0.81084 5.28188 0.926594 5.77234 2.30279 6.30739C2.31737 6.31339 2.33366 6.31596 2.3491 6.31596C2.35081 6.31596 2.35252 6.31596 2.35424 6.31596C2.46399 6.31167 2.55231 6.31082 2.62605 6.31082C2.63977 6.31082 2.65263 6.31082 2.66549 6.31082C3.01876 6.31082 3.07535 6.25937 3.0985 5.92411C3.10365 5.85123 3.10965 5.76034 3.12337 5.64458C3.1268 5.61371 3.11908 5.58199 3.10193 5.55626C2.11758 4.12433 1.91952 3.597 1.82434 3.3432C1.7163 3.05424 1.68029 3.01823 1.17954 2.69154C0.412127 2.19165 -0.190657 2.01073 -0.518201 2.18222H-0.516486Z" fill="#4C76BF"/>
<path d="M4.28967 10.6669C4.27767 10.6926 4.27423 10.7218 4.28024 10.7492C4.33683 11.0099 4.45258 11.1934 4.62407 11.2928C4.72011 11.3486 4.829 11.3769 4.95162 11.3769C5.04765 11.3769 5.15226 11.3597 5.26373 11.3246C5.30746 11.3108 5.34004 11.2757 5.35033 11.2311C5.47637 10.6978 5.2603 10.4165 5.01678 10.3308C4.73897 10.233 4.426 10.3771 4.28967 10.666V10.6669Z" fill="#4C76BF"/>
<path d="M1.62127 17.0101L1.11624 16.9903C1.07337 16.9886 1.03392 17.0075 1.0082 17.0409C0.762113 17.365 0.818705 17.6017 0.909594 17.7432C1.07851 18.0064 1.47979 18.1136 1.80562 18.1136C1.89737 18.1136 1.98397 18.105 2.05685 18.0887C2.34324 18.0253 2.40669 17.8727 2.41784 17.7869C2.44956 17.5571 2.20691 17.3076 1.67615 17.0246C1.659 17.0152 1.64014 17.0101 1.62042 17.0092L1.62127 17.0101Z" fill="#4C76BF"/>
<path d="M13.5661 5.27799C13.5721 5.23512 13.5773 5.19739 13.5824 5.16309C13.6159 4.92901 13.6399 4.76009 13.3981 4.70693C13.1477 4.65206 12.8742 4.68893 12.6281 4.81068C11.9104 5.16652 11.5186 5.58924 11.5529 5.97081C11.5726 6.1826 11.7235 6.34808 11.9567 6.41496C12.0279 6.43554 12.1059 6.44583 12.1899 6.44583C12.5484 6.44583 13.0011 6.24862 13.3689 5.76159C13.4744 5.62183 13.543 5.45462 13.5661 5.27799Z" fill="#4C76BF"/>
<path d="M57.7941 4.56918C57.7589 4.52374 57.7281 4.48344 57.7006 4.44828C57.452 4.12417 57.428 4.10788 57.0635 4.01356C56.9778 3.99126 56.8698 3.96297 56.73 3.92267C56.7197 3.92095 56.7086 3.91924 56.6983 3.91752C55.5613 3.84293 55.3598 3.72974 55.1643 3.61913C54.9825 3.5171 54.8102 3.42021 54.1028 3.36276C54.0419 3.35761 53.9793 3.36104 53.9176 3.37305C52.3425 3.66801 52.1092 3.68773 51.2801 3.22985C50.7742 2.95033 50.5367 2.9186 50.2083 2.87316C49.8644 2.826 49.3937 2.76169 48.3279 2.35955C48.3219 2.35783 48.315 2.35612 48.309 2.35354C46.8265 2.02 46.246 2.27552 45.8216 2.46244C45.4623 2.62021 45.2454 2.71539 44.5886 2.32696C43.4628 1.65987 42.6628 1.82279 41.9571 1.96598C41.3989 2.07916 40.917 2.17777 40.3588 1.83736C40.3194 1.81335 40.2911 1.77305 40.2833 1.72761C40.2748 1.68302 40.2859 1.63929 40.3134 1.60414C40.4994 1.3632 40.604 1.32976 40.6872 1.30232C40.8064 1.26373 40.8956 1.21914 40.9599 0.998781C41.0285 0.762984 40.9179 0.510895 40.6966 0.399427C39.72 -0.092746 39.2698 0.113041 38.5239 0.454304C38.0651 0.66352 37.4949 0.924183 36.5938 1.1274C36.5938 1.1274 36.5929 1.1274 36.5921 1.1274L36.3202 1.14883C35.0555 1.24916 34.8832 1.26287 33.9606 2.04486C33.9588 2.04572 33.9571 2.04744 33.9554 2.04744C33.3235 2.20521 33.0337 2.35011 32.9248 2.56019C32.8244 2.75483 32.9042 2.95461 32.9959 3.18527C33.1263 3.51367 33.2892 3.92181 33.092 4.55632C33.0705 4.62406 33.0139 4.67808 32.9436 4.6978C32.5603 4.80241 32.3177 4.80584 32.2217 4.70637C32.1162 4.59748 32.1325 4.31624 32.2697 3.87122C32.3203 3.70831 32.3314 3.53682 32.3031 3.37562C32.2225 2.92289 32.0579 2.66565 31.8127 2.61164C31.5408 2.55161 31.2373 2.75997 30.9098 3.23071C30.8712 3.28559 30.8223 3.33446 30.7631 3.37648C30.2847 3.71088 30.1021 3.67315 29.8242 3.61485C29.278 3.49995 28.5295 3.34218 25.5096 5.39233C25.4135 5.45749 25.2986 5.48751 25.1837 5.47807C24.7336 5.44035 24.4472 5.28515 24.3074 5.00305C24.286 4.95932 24.2903 4.91045 24.3203 4.87186C24.334 4.85385 24.3743 4.81355 24.4412 4.82727L24.5175 4.84356C24.9462 4.93531 25.2292 4.99619 25.4255 4.51516C25.4933 4.34968 25.4778 4.16018 25.3844 4.01013C24.9488 3.30702 24.3923 2.87487 23.7321 2.72653C22.6972 2.49417 21.6091 3.00863 20.8785 3.48108C20.4232 3.77605 19.9911 4.16704 19.5958 4.64206C19.2614 5.04421 18.9158 5.28858 18.638 5.48408C18.3276 5.70358 18.0824 5.87679 18.0695 6.15203C18.0532 6.50787 18.4314 6.94945 19.6258 7.96809C19.6446 7.98439 19.6678 7.99553 19.6918 7.99982C20.1051 8.07699 20.3409 8.05384 20.4789 7.92265C20.6444 7.76659 20.6101 7.5085 20.5715 7.21011C20.5141 6.77196 20.4429 6.22748 20.8485 5.65985C20.8485 5.65985 20.8494 5.65814 20.8502 5.65728C21.1941 5.32888 21.4376 5.27915 21.5422 5.33745C21.6562 5.4009 21.6862 5.62813 21.6202 5.9308C21.5748 6.13831 21.5919 6.34667 21.6691 6.53445L21.7077 6.62791C21.9186 7.13551 22.2376 7.90379 21.8997 8.3085C21.6022 8.6652 20.8331 8.71064 19.6146 8.44569C18.6543 8.23647 18.4005 8.50657 18.0164 8.91471C17.916 9.02189 17.802 9.14279 17.6614 9.26884C17.6605 9.26969 17.6588 9.27055 17.6579 9.27141C17.3638 9.40517 17.1109 9.50978 16.9068 9.59295C15.919 9.99852 15.7664 10.098 16.1771 11.2341C16.2003 11.2967 16.214 11.3627 16.22 11.4296C16.2252 11.4845 16.2312 11.5514 16.2312 11.5977C16.2312 11.6054 16.2252 11.6105 16.2174 11.6097C16.178 11.6054 16.1231 11.5959 16.0691 11.5874C16.0039 11.5762 15.9259 11.5634 15.8333 11.5514C15.4732 11.5025 15.1242 11.662 14.9236 11.9664C14.7281 12.2622 14.7186 12.6335 14.8987 12.9344C14.9441 13.0116 15.0007 13.0922 15.0693 13.1831C15.1971 13.3503 15.3617 13.49 15.5443 13.5878C16.31 13.9951 16.617 13.5363 16.8888 13.1308C17.0577 12.8787 17.2318 12.618 17.5199 12.4988C17.7188 12.4165 17.8895 12.3222 18.0395 12.2099C18.9921 11.5016 19.7107 11.9921 20.4061 12.4662C20.8828 12.7912 21.333 13.0982 21.8088 12.9498C22.2487 12.8127 22.6277 12.2999 23.0015 11.3361C23.0015 11.3344 23.0033 11.3327 23.005 11.3319C23.3325 11.0086 23.4071 11.0489 23.5409 11.1201C23.7021 11.2067 23.9216 11.3241 24.4018 11.1235C24.4035 11.1235 24.406 11.1226 24.4086 11.1226C24.8622 11.1707 25.0311 11.325 25.1752 11.5891C25.2266 11.6843 25.2463 11.7957 25.2206 11.9012C25.1795 12.0658 25.056 12.1867 24.8974 12.2236C24.7936 12.2485 24.683 12.2733 24.5681 12.299C23.498 12.5417 22.7949 12.7295 22.7717 13.1119C22.7563 13.3683 23.0599 13.5946 23.7544 13.8442C23.7561 13.8442 23.757 13.8459 23.7587 13.8467C24.0399 14.086 24.178 14.3295 24.1359 14.5164C24.0982 14.6879 23.9019 14.8302 23.5829 14.9203C23.5803 14.9203 23.5778 14.9203 23.5752 14.9203C23.2459 14.8199 22.975 14.7316 22.7555 14.6605C21.8011 14.3501 21.6193 14.29 20.9745 14.6553C20.9728 14.6562 20.9711 14.657 20.9694 14.657C20.1008 14.7385 19.739 14.3561 19.3874 13.9874C18.9107 13.4858 18.4597 13.0116 17.0029 13.8253C17.0029 13.8253 17.0029 13.8253 17.002 13.8253C16.4601 14.0628 16.0648 14.0645 15.7476 14.0654C15.1516 14.068 14.8507 14.1194 14.6286 15.2367C14.6286 15.2392 14.626 15.2427 14.6243 15.2444C14.3139 15.4956 14.0798 15.6362 13.9075 15.7408C13.465 16.0075 13.3467 16.1104 13.291 16.9018C13.291 16.9104 13.291 16.9241 13.2918 16.9327C13.3013 17.0098 13.2944 17.153 13.2858 17.3194C13.237 18.314 13.1229 20.6446 15.9328 20.9267C15.9482 20.9284 15.9628 20.9267 15.9782 20.9232C16.2029 20.8649 16.3932 20.8092 16.5613 20.7603C17.1306 20.594 17.3913 20.5185 17.7814 20.6789C17.9846 20.762 18.1698 20.8135 18.349 20.8349C18.6474 20.8709 18.6912 20.961 18.6654 21.1976C18.6071 21.7258 18.7118 22.2197 18.969 22.6253C19.0684 22.7822 19.1722 22.9159 19.2734 23.0445C19.5846 23.4441 19.7904 23.7082 19.5529 24.2544C19.288 24.8632 19.2579 25.5294 19.468 26.1305C19.6395 26.6201 19.8762 27.1569 20.0854 27.631C20.2337 27.9671 20.3735 28.2844 20.4738 28.5468C20.6299 28.9541 20.9162 29.2782 21.2807 29.4574C21.4744 29.5534 21.6579 29.5963 21.8328 29.5963C22.7563 29.5963 23.4354 28.3804 24.0965 27.1989C24.4549 26.5584 24.8253 25.8956 25.2309 25.4205C25.4881 25.1196 25.6356 24.75 25.6468 24.3787C25.6519 24.1944 25.6185 24.0992 25.5293 23.8454C25.4976 23.7545 25.4573 23.6396 25.4075 23.4904C25.4075 23.4904 25.4075 23.4896 25.4075 23.4887C25.1434 22.2446 25.381 22.0756 26.0823 21.5775C26.3439 21.3914 26.6697 21.1599 27.0427 20.8178C27.203 20.6703 27.3342 20.4894 27.4217 20.2947C27.5932 19.914 27.6163 19.6688 27.4971 19.4973C27.3145 19.2341 26.8549 19.2444 26.175 19.2907C26.1132 19.2949 26.0506 19.2915 25.9897 19.2812C25.9623 19.2769 25.934 19.2726 25.9057 19.2684C25.459 19.2032 24.9531 19.1295 24.4035 16.1258C24.4035 16.1215 24.4035 16.1173 24.4069 16.1147C24.5167 15.9946 24.5758 15.9869 24.5973 15.9895C24.7216 16.0075 24.8768 16.3771 25.0131 16.7029C25.381 17.5783 25.9357 18.9022 27.4946 18.6742C27.504 18.6716 27.5134 18.669 27.5229 18.6673L27.6266 18.6296C28.2671 18.3989 28.6195 18.2712 29.0637 17.2088C29.1743 16.9447 29.1108 16.6394 28.9068 16.4482C28.7919 16.3402 28.6958 16.3239 28.5638 16.3025C28.3923 16.2742 28.1076 16.2261 27.4731 15.9226C27.4714 15.9226 27.4697 15.9209 27.4688 15.9192C27.1799 15.5891 27.1224 15.3387 27.1953 15.2358C27.2708 15.1303 27.5409 15.1038 27.9782 15.2812C27.979 15.2812 27.9807 15.2821 27.9816 15.283C28.815 15.9012 28.8519 15.9166 29.7171 16.0855C29.8808 16.1172 30.0763 16.1558 30.3156 16.2056H30.3173C31.8409 16.7595 32.2808 18.0714 32.5732 18.9408C32.737 19.4287 32.845 19.7511 33.1031 19.776C33.3964 19.8034 33.7179 19.4107 34.433 18.1571C34.7726 17.5603 35.1267 17.2559 35.4851 17.2516C35.4877 17.2516 35.4902 17.2516 35.4928 17.2516C36.2645 17.2516 37.0791 18.6056 37.7342 19.6945C38.3164 20.6626 38.7768 21.4274 39.2338 21.4746C39.3745 21.49 39.5022 21.4377 39.6137 21.3202C39.6488 21.2834 39.6617 21.2285 39.6463 21.1796C39.4045 20.4002 39.1618 19.9809 39.016 19.7297C38.9689 19.6482 38.9209 19.565 38.908 19.5247C38.9063 19.5196 38.908 19.5144 38.9123 19.5119C38.9286 19.4999 38.9629 19.4801 39.0306 19.451C39.0332 19.4501 39.0375 19.4493 39.0401 19.451C39.4988 19.6216 39.8941 19.3961 40.0887 19.0857C40.2876 18.7685 40.3142 18.2986 39.9224 17.965C39.9155 17.959 39.9078 17.953 39.9018 17.9462C39.7912 17.8407 39.7457 17.6881 39.7809 17.5329C39.8126 17.3906 39.9181 17.2765 40.0476 17.2105C40.4651 16.9978 40.8218 16.9052 41.1374 16.8238C41.8362 16.6429 42.3412 16.5117 42.6516 15.2572C42.655 15.2435 42.6568 15.2281 42.6559 15.2144C42.6285 14.7393 42.5633 14.3998 42.5153 14.1511C42.4278 13.695 42.4047 13.5724 42.6893 13.3434C42.8214 13.2371 42.9963 13.2045 43.1464 13.2568C43.2818 13.3048 43.3016 13.3769 43.3367 13.5072L43.3436 13.5329C43.4147 13.7936 43.642 13.9608 43.9163 13.9488C44.1839 13.9376 44.3957 13.7541 44.4445 13.4926C44.4745 13.3297 44.4445 13.2131 44.4154 13.099C44.3845 12.9799 44.3554 12.8667 44.3939 12.6755C44.436 12.4637 44.58 12.2793 44.7781 12.1824C46.3781 11.4022 47.1712 10.5036 47.1335 9.51407C47.124 9.27227 47.0066 9.04848 46.8094 8.90014C46.5153 8.67892 46.3309 8.51 46.3241 8.35652C46.3172 8.22018 46.4398 8.04269 46.7202 7.78289C46.7202 7.78289 46.7219 7.78117 46.7228 7.78117C47.6977 7.21097 48.0587 7.30443 48.4402 7.40304C48.8124 7.49907 49.1982 7.59854 50.0531 7.10379C50.4887 6.8517 51.5245 6.62705 51.7834 6.6845C51.792 6.68621 51.7954 6.6965 51.7903 6.70422C51.732 6.78739 51.5159 7.00604 50.709 7.46992C50.4569 7.61483 50.276 7.86091 50.2126 8.14559C50.0848 8.71836 49.8353 10.074 50.2674 10.2832C50.5384 10.4144 50.8711 10.0663 51.1026 9.78416C51.1026 9.78331 51.1043 9.78245 51.1052 9.78159C51.9772 9.18395 52.0921 8.91643 52.2361 8.57774C52.3596 8.28878 52.5131 7.92865 53.2754 7.18267C53.4177 7.04291 53.5969 6.94345 53.7933 6.89286C53.8713 6.87314 53.9442 6.85513 54.011 6.83798C54.7879 6.6442 54.9722 6.5979 55.1163 5.92909C55.1549 5.74903 55.2646 5.59812 55.4173 5.51409C55.8065 5.29973 56.1049 5.38804 56.4205 5.48236C56.8518 5.61098 57.2976 5.74474 57.8104 4.97047C57.8936 4.84528 57.8867 4.67979 57.7941 4.56061V4.56918Z" fill="#4C76BF"/>
<path d="M19.1713 -0.463291C19.1713 -0.438425 19.1798 -0.415274 19.1936 -0.394695C19.7329 0.395012 19.9404 0.649673 20.1633 0.649673C20.2345 0.649673 20.3082 0.623092 20.394 0.58022C20.4343 0.560499 20.4754 0.539063 20.5252 0.521056C20.5372 0.516769 20.5475 0.510767 20.5577 0.503907C20.8553 0.283544 21.3783 0.149782 21.7993 0.0426018C22.3275 -0.0920171 22.6465 -0.173474 22.6533 -0.402412C22.6593 -0.597052 22.4518 -0.769399 21.3449 -1.12095C21.3312 -1.12524 21.3166 -1.12695 21.3012 -1.12695C20.7267 -1.10637 20.3185 -1.11152 20.021 -1.11581C19.5434 -1.12181 19.365 -1.12352 19.251 -1.00691C19.155 -0.908305 19.1601 -0.770256 19.1678 -0.561039L19.1713 -0.462433V-0.463291Z" fill="#4C76BF"/>
<path d="M29.1136 3.15549C29.1179 3.15549 29.1231 3.15549 29.1282 3.15549C29.2311 3.15549 29.4412 3.09804 29.4789 2.64102C29.5218 2.1317 29.9153 2.03995 30.5593 1.94906C31.1355 1.8676 31.8532 1.76643 31.8506 0.9227C31.8506 0.869538 31.818 0.822379 31.7683 0.803515C31.6928 0.774362 31.6328 0.750353 31.5831 0.730632C31.3413 0.634598 31.3275 0.631168 31.0935 0.622594C31.0369 0.620022 30.9666 0.617449 30.8645 0.612305C28.7792 0.635456 28.5323 1.66353 28.5237 2.10512C28.5134 2.61873 28.8058 3.13919 29.1145 3.15549H29.1136Z" fill="#4C76BF"/>
<path d="M27.4894 24.412C27.1876 24.2328 26.6963 24.5287 26.3687 24.9137C25.8705 25.4993 25.5824 26.4176 26.2701 27.2399C26.2855 27.2579 26.3053 27.2716 26.3276 27.2793C26.511 27.3419 26.6577 27.3814 26.7777 27.3814C26.8515 27.3814 26.9149 27.3668 26.9715 27.3334C27.1276 27.2408 27.1593 27.047 27.2082 26.7546C27.2562 26.4665 27.3213 26.0721 27.5237 25.5456C27.8118 24.797 27.6643 24.5167 27.4903 24.4129L27.4894 24.412Z" fill="#4C76BF"/>
<path d="M15.923 9.17804C15.9496 9.18405 15.977 9.18833 16.0062 9.18833C16.1502 9.18833 16.3234 9.09573 16.4529 8.73646C16.4555 8.7296 16.4572 8.72188 16.4589 8.71417C16.5909 7.92789 16.3226 7.59434 16.0748 7.45286C15.8021 7.29767 15.4711 7.33196 15.3897 7.40142C15.3828 7.40742 15.3759 7.41428 15.3708 7.422C15.2962 7.4623 15.2207 7.54718 15.2002 7.7221C15.1496 8.1594 15.502 9.07858 15.9238 9.17719L15.923 9.17804Z" fill="#4C76BF"/>
<path d="M14.3682 9.84796C14.4728 9.91827 14.5637 9.93971 14.6358 9.93971C14.6683 9.93971 14.6966 9.93542 14.7206 9.92942C14.7927 9.91142 14.8947 9.85997 14.9693 9.71849C15.037 9.59159 15.0388 9.43639 14.9744 9.30263C14.845 9.03425 14.6966 8.90478 14.5329 8.91678C14.3777 8.92878 14.2516 9.06769 14.1779 9.30692C14.1153 9.51185 14.1916 9.72878 14.3674 9.84711L14.3682 9.84796Z" fill="#4C76BF"/>
</g>
</g>
<defs>
<clipPath id="clip0_10547_29592">
<rect width="32" height="32" rx="16" fill="white"/>
</clipPath>
</defs>
</svg>
