<svg width="32" height="32" viewBox="0 0 32 32" fill="none" xmlns="http://www.w3.org/2000/svg">
<g clip-path="url(#clip0_10547_29840)">
<circle cx="16" cy="16" r="18" fill="#9FCFF2"/>
<mask id="mask0_10547_29840" style="mask-type:alpha" maskUnits="userSpaceOnUse" x="0" y="0" width="32" height="32">
<circle cx="16" cy="16" r="16" fill="#9FCFF2"/>
</mask>
<g mask="url(#mask0_10547_29840)">
<path d="M89.8899 -9.00967C89.8171 -9.1038 89.7532 -9.18728 89.6964 -9.2601C89.1813 -9.93149 89.1315 -9.96523 88.3767 -10.1606C88.1991 -10.2068 87.9753 -10.2654 87.6858 -10.3489C87.6644 -10.3524 87.6413 -10.356 87.62 -10.3595C85.2649 -10.5141 84.8475 -10.7485 84.4425 -10.9776C84.066 -11.189 83.709 -11.3897 82.2437 -11.5087C82.1175 -11.5194 81.9879 -11.5123 81.86 -11.4874C78.5972 -10.8764 78.1141 -10.8355 76.3966 -11.784C75.3487 -12.363 74.8567 -12.4287 74.1764 -12.5229C73.4642 -12.6206 72.4891 -12.7538 70.2813 -13.5868C70.2689 -13.5903 70.2547 -13.5939 70.2423 -13.5992C67.1713 -14.2901 65.9689 -13.7608 65.0897 -13.3736C64.3455 -13.0468 63.8961 -12.8497 62.5356 -13.6543C60.2035 -15.0361 58.5464 -14.6987 57.0846 -14.402C55.9283 -14.1676 54.9301 -13.9633 53.7739 -14.6685C53.6922 -14.7182 53.6335 -14.8017 53.6176 -14.8958C53.5998 -14.9882 53.6229 -15.0787 53.6797 -15.1516C54.0651 -15.6507 54.2818 -15.7199 54.4541 -15.7768C54.701 -15.8567 54.8857 -15.9491 55.0189 -16.4055C55.161 -16.894 54.9319 -17.4161 54.4737 -17.647C52.4506 -18.6666 51.5182 -18.2403 49.9729 -17.5334C49.0227 -17.1 47.8415 -16.56 45.9748 -16.1391C45.9748 -16.1391 45.973 -16.1391 45.9713 -16.1391L45.4082 -16.0947C42.7884 -15.8869 42.4314 -15.8585 40.5203 -14.2386C40.5167 -14.2369 40.5132 -14.2333 40.5096 -14.2333C39.2006 -13.9065 38.6003 -13.6063 38.3747 -13.1712C38.1669 -12.768 38.3321 -12.3541 38.5221 -11.8764C38.7921 -11.1961 39.1296 -10.3507 38.7211 -9.03631C38.6767 -8.89599 38.5594 -8.7841 38.4138 -8.74325C37.6199 -8.52656 37.1172 -8.51945 36.9183 -8.72548C36.6998 -8.95105 36.7335 -9.53363 37.0177 -10.4554C37.1225 -10.7929 37.1456 -11.1481 37.087 -11.4821C36.92 -12.4199 36.579 -12.9527 36.0711 -13.0646C35.508 -13.1889 34.8793 -12.7573 34.2008 -11.7822C34.1208 -11.6686 34.0196 -11.5673 33.897 -11.4803C32.906 -10.7876 32.5276 -10.8657 31.9522 -10.9865C30.8208 -11.2245 29.2702 -11.5513 23.0146 -7.30457C22.8157 -7.16958 22.5777 -7.10742 22.3397 -7.12696C21.4072 -7.20511 20.814 -7.52659 20.5245 -8.11094C20.4801 -8.20152 20.4889 -8.30276 20.5511 -8.38269C20.5795 -8.41999 20.663 -8.50347 20.8015 -8.47505L20.9596 -8.4413C21.8477 -8.25126 22.4338 -8.12515 22.8406 -9.12156C22.9809 -9.46436 22.9489 -9.85689 22.7553 -10.1677C21.853 -11.6241 20.7003 -12.5193 19.3327 -12.8266C17.1889 -13.3079 14.9349 -12.2422 13.4217 -11.2636C12.4785 -10.6526 11.5834 -9.84268 10.7646 -8.8587C10.0719 -8.02568 9.35608 -7.51948 8.78061 -7.11452C8.13765 -6.65983 7.62967 -6.30105 7.60303 -5.73091C7.56928 -4.99381 8.35256 -4.07909 10.8267 -1.96904C10.8658 -1.93529 10.9138 -1.9122 10.9635 -1.90332C11.8196 -1.74347 12.308 -1.79142 12.594 -2.06317C12.9368 -2.38643 12.8657 -2.92105 12.7858 -3.53915C12.6668 -4.44676 12.5194 -5.57461 13.3595 -6.75041C13.3595 -6.75041 13.3613 -6.75397 13.3631 -6.75574C14.0753 -7.436 14.5797 -7.53902 14.7964 -7.41824C15.0326 -7.28681 15.0948 -6.81613 14.958 -6.18915C14.8639 -5.75933 14.8994 -5.32772 15.0593 -4.93875L15.1392 -4.74515C15.5761 -3.69367 16.2369 -2.10225 15.5371 -1.26391C14.9207 -0.525034 13.3275 -0.430899 10.8036 -0.979727C8.81436 -1.41311 8.28862 -0.853621 7.49291 -0.0081768C7.2851 0.21384 7.04888 0.464275 6.75759 0.725368C6.75581 0.727144 6.75226 0.728924 6.75048 0.7307C6.14127 1.00778 5.6173 1.22447 5.19458 1.39675C3.14847 2.23687 2.83231 2.4429 3.68308 4.79629C3.73104 4.92595 3.75946 5.06271 3.77189 5.20125C3.78255 5.31492 3.79498 5.45346 3.79498 5.54937C3.79498 5.56536 3.78255 5.57601 3.76656 5.57424C3.68486 5.56536 3.57119 5.54582 3.45929 5.52806C3.32431 5.50497 3.16268 5.47833 2.97085 5.45346C2.22487 5.35222 1.50198 5.68258 1.08636 6.31311C0.681403 6.92588 0.661869 7.69495 1.03486 8.31838C1.12899 8.47823 1.24622 8.64519 1.38831 8.83346C1.65295 9.17981 1.99398 9.46932 2.37229 9.6718C3.95839 10.5155 4.59425 9.56523 5.15728 8.72511C5.50718 8.20293 5.86774 7.66298 6.46452 7.4161C6.87659 7.24559 7.23004 7.05021 7.54086 6.81754C9.51416 5.35044 11.0026 6.3664 12.443 7.3486C13.4306 8.02176 14.363 8.65762 15.3488 8.35035C16.26 8.06617 17.045 7.00403 17.8194 5.00765C17.8194 5.0041 17.823 5.00054 17.8265 4.99877C18.505 4.32916 18.6595 4.41264 18.9366 4.56006C19.2705 4.73945 19.7252 4.98278 20.7198 4.56716C20.7234 4.56716 20.7287 4.56539 20.7341 4.56539C21.6736 4.66485 22.0235 4.98456 22.3219 5.53161C22.4285 5.72876 22.4693 5.95966 22.4161 6.17813C22.3308 6.51915 22.075 6.76958 21.7465 6.84595C21.5315 6.89746 21.3024 6.94897 21.0644 7.00226C18.8478 7.50491 17.3914 7.89388 17.3434 8.68604C17.3114 9.21711 17.9402 9.68601 19.3789 10.2029C19.3824 10.2029 19.3842 10.2064 19.3877 10.2082C19.9703 10.7037 20.2563 11.2082 20.1692 11.5954C20.0911 11.9506 19.6844 12.2454 19.0236 12.4319C19.0183 12.4319 19.013 12.4319 19.0076 12.4319C18.3256 12.2241 17.7643 12.0412 17.3097 11.8938C15.3328 11.2508 14.9563 11.1265 13.6206 11.8831C13.6171 11.8849 13.6135 11.8866 13.6099 11.8866C11.8107 12.0554 11.0612 11.2632 10.333 10.4995C9.34543 9.46044 8.41118 8.47823 5.39351 10.1638C5.39351 10.1638 5.39351 10.1638 5.39174 10.1638C4.26921 10.6558 3.45041 10.6593 2.79324 10.6611C1.55882 10.6664 0.93539 10.773 0.475369 13.0873C0.475369 13.0926 0.470043 13.0998 0.466491 13.1033C-0.176473 13.6237 -0.661357 13.915 -1.01836 14.1317C-1.93485 14.6841 -2.17996 14.8972 -2.29541 16.5366C-2.29541 16.5543 -2.29541 16.5828 -2.29364 16.6005C-2.2741 16.7604 -2.2883 17.057 -2.30607 17.4016C-2.40731 19.4619 -2.64353 24.2895 3.17689 24.8738C3.20886 24.8774 3.23905 24.8738 3.27102 24.8667C3.73637 24.7459 4.13067 24.6305 4.4788 24.5292C5.65816 24.1847 6.1981 24.0284 7.00625 24.3605C7.4272 24.5328 7.81084 24.6394 8.18206 24.6838C8.80015 24.7584 8.89074 24.9448 8.83745 25.4351C8.71667 26.5292 8.93337 27.5522 9.46621 28.3923C9.67224 28.7174 9.88715 28.9945 10.0967 29.2609C10.7415 30.0886 11.1678 30.6356 10.6758 31.767C10.1269 33.0281 10.0648 34.4081 10.4999 35.6532C10.8551 36.6674 11.3454 37.7793 11.7787 38.7615C12.086 39.4577 12.3755 40.1149 12.5833 40.6584C12.9066 41.5021 13.4998 42.1734 14.2547 42.5446C14.6561 42.7436 15.0362 42.8324 15.3985 42.8324C17.3114 42.8324 18.7181 40.3138 20.0875 37.8663C20.83 36.5395 21.5973 35.1665 22.4374 34.1826C22.9702 33.5591 23.2757 32.7936 23.2988 32.0246C23.3095 31.6427 23.2402 31.4455 23.0555 30.9198C22.9898 30.7315 22.9063 30.4935 22.8033 30.1845C22.8033 30.1845 22.8033 30.1827 22.8033 30.1809C22.2562 27.6037 22.7482 27.2538 24.2011 26.2219C24.7428 25.8365 25.4177 25.3569 26.1904 24.6482C26.5225 24.3427 26.7943 23.968 26.9754 23.5648C27.3307 22.7762 27.3786 22.2682 27.1317 21.913C26.7534 21.3677 25.8014 21.389 24.3929 21.4849C24.265 21.4938 24.1354 21.4867 24.0093 21.4654C23.9524 21.4565 23.8938 21.4476 23.8352 21.4387C22.9098 21.3038 21.8619 21.151 20.7234 14.9292C20.7234 14.9203 20.7234 14.9114 20.7305 14.9061C20.9578 14.6574 21.0804 14.6414 21.1248 14.6468C21.3823 14.6841 21.7038 15.4496 21.9862 16.1245C22.7482 17.938 23.8974 20.6803 27.1264 20.2079C27.1459 20.2025 27.1655 20.1972 27.185 20.1937L27.3999 20.1155C28.7267 19.6377 29.4567 19.3731 30.3767 17.1724C30.6059 16.6254 30.4744 15.9931 30.0517 15.597C29.8137 15.3732 29.6148 15.3395 29.3412 15.2951C28.986 15.2365 28.3963 15.137 27.082 14.5082C27.0784 14.5082 27.0749 14.5047 27.0731 14.5011C26.4745 13.8173 26.3555 13.2987 26.5065 13.0855C26.6628 12.8671 27.2223 12.812 28.1281 13.1797C28.1299 13.1797 28.1335 13.1815 28.1352 13.1832C29.8617 14.4638 29.938 14.4958 31.7302 14.8457C32.0694 14.9114 32.4744 14.9913 32.9699 15.0944H32.9735C36.1297 16.2417 37.0408 18.9592 37.6465 20.7603C37.9857 21.7709 38.2095 22.4387 38.7441 22.4902C39.3516 22.5471 40.0176 21.7336 41.4989 19.1369C42.2023 17.9007 42.9358 17.2701 43.6783 17.2613C43.6836 17.2613 43.6889 17.2613 43.6943 17.2613C45.2928 17.2613 46.9801 20.0658 48.3371 22.3215C49.5431 24.3267 50.4969 25.9111 51.4436 26.0088C51.7349 26.0407 51.9995 25.9324 52.2304 25.6891C52.3032 25.6127 52.3299 25.499 52.2979 25.3978C51.797 23.7832 51.2944 22.9147 50.9924 22.3943C50.8947 22.2256 50.7953 22.0533 50.7686 21.9698C50.7651 21.9592 50.7686 21.9485 50.7775 21.9432C50.8113 21.9183 50.8823 21.8774 51.0226 21.8171C51.028 21.8153 51.0368 21.8135 51.0422 21.8171C51.9924 22.1705 52.8112 21.7034 53.2144 21.0604C53.6264 20.4033 53.6815 19.4299 52.8698 18.739C52.8556 18.7266 52.8396 18.7141 52.8272 18.6999C52.5981 18.4815 52.5039 18.1653 52.5767 17.8438C52.6425 17.549 52.8609 17.3128 53.1291 17.176C53.9941 16.7355 54.733 16.5437 55.3866 16.375C56.8342 16.0002 57.8803 15.7284 58.5233 13.1299C58.5304 13.1015 58.5339 13.0696 58.5321 13.0411C58.4753 12.0572 58.3403 11.3538 58.2409 10.8387C58.0597 9.89381 58.0117 9.63983 58.6014 9.1656C58.8749 8.94535 59.2373 8.87786 59.5481 8.98621C59.8287 9.08567 59.8696 9.23487 59.9424 9.50484L59.9566 9.55812C60.104 10.0981 60.5747 10.4444 61.1431 10.4196C61.6972 10.3965 62.1359 10.0164 62.2372 9.47465C62.2994 9.13718 62.2372 8.89562 62.1768 8.6594C62.1129 8.41251 62.0525 8.17806 62.1324 7.78198C62.2194 7.34328 62.5178 6.9614 62.9281 6.7607C66.2424 5.14441 67.8853 3.28301 67.8072 1.23335C67.7876 0.732473 67.5443 0.268902 67.1358 -0.0383701C66.5266 -0.496614 66.1447 -0.846518 66.1305 -1.16445C66.1163 -1.44685 66.3703 -1.81451 66.9511 -2.35268C66.9511 -2.35268 66.9546 -2.35624 66.9564 -2.35624C68.9759 -3.53737 69.7236 -3.34377 70.514 -3.13952C71.2849 -2.94059 72.0841 -2.73456 73.8549 -3.75939C74.7572 -4.28158 76.9028 -4.74692 77.4392 -4.62792C77.4569 -4.62437 77.4641 -4.60306 77.4534 -4.58707C77.3326 -4.41479 76.885 -3.96187 75.2137 -3.00098C74.6915 -2.70081 74.3167 -2.19106 74.1853 -1.60138C73.9206 -0.414913 73.4038 2.39317 74.299 2.82655C74.8602 3.0983 75.5494 2.37718 76.0289 1.79283C76.0289 1.79106 76.0325 1.78928 76.0343 1.7875C77.8406 0.549532 78.0786 -0.00462532 78.377 -0.706202C78.6328 -1.30476 78.9507 -2.05074 80.5297 -3.59598C80.8245 -3.8855 81.1957 -4.09153 81.6025 -4.19632C81.7641 -4.23717 81.9151 -4.27447 82.0536 -4.30999C83.6628 -4.7114 84.0447 -4.80731 84.3431 -6.1927C84.423 -6.56569 84.6503 -6.8783 84.9665 -7.05236C85.7729 -7.49639 86.391 -7.31345 87.0446 -7.11808C87.938 -6.85166 88.8616 -6.57458 89.9237 -8.17843C90.096 -8.43775 90.0818 -8.78055 89.8899 -9.02743V-9.00967Z" fill="#4C76BF"/>
<path d="M27.1184 32.094C26.4932 31.7228 25.4755 32.3356 24.797 33.1331C23.765 34.3462 23.1683 36.2484 24.5927 37.9518C24.6247 37.9891 24.6655 38.0175 24.7117 38.0335C25.0918 38.1631 25.3955 38.2448 25.6442 38.2448C25.7969 38.2448 25.9284 38.2146 26.0456 38.1454C26.3689 37.9535 26.4346 37.5521 26.5358 36.9465C26.6353 36.3497 26.7703 35.5327 27.1894 34.4421C27.7862 32.8915 27.4807 32.3107 27.1202 32.0958L27.1184 32.094Z" fill="#4C76BF"/>
<path d="M3.16359 0.536019C3.21865 0.548452 3.27548 0.557335 3.33587 0.557335C3.63426 0.557335 3.99304 0.365511 4.26124 -0.378693C4.26657 -0.392902 4.27012 -0.408886 4.27368 -0.424872C4.5472 -2.05359 3.99127 -2.74451 3.47796 -3.03758C2.91315 -3.35906 2.22756 -3.28801 2.05883 -3.14415C2.04462 -3.13171 2.03041 -3.1175 2.01975 -3.10152C1.86523 -3.01804 1.70892 -2.8422 1.66629 -2.47987C1.5615 -1.57404 2.2915 0.329988 3.16536 0.534244L3.16359 0.536019Z" fill="#4C76BF"/>
<path d="M-0.0569875 1.92461C0.159702 2.07025 0.347972 2.11466 0.497168 2.11466C0.564662 2.11466 0.623278 2.10578 0.67301 2.09335C0.822206 2.05605 1.03357 1.94948 1.18809 1.65641C1.32841 1.39355 1.33196 1.07207 1.19875 0.794987C0.930549 0.239055 0.623278 -0.0291426 0.284034 -0.00427659C-0.0374475 0.0205894 -0.298543 0.308322 -0.451291 0.803866C-0.58095 1.22836 -0.422875 1.67773 -0.0587654 1.92284L-0.0569875 1.92461Z" fill="#4C76BF"/>
</g>
</g>
<defs>
<clipPath id="clip0_10547_29840">
<rect width="32" height="32" rx="16" fill="white"/>
</clipPath>
</defs>
</svg>
