<svg width="32" height="32" viewBox="0 0 32 32" fill="none" xmlns="http://www.w3.org/2000/svg">
<g clip-path="url(#clip0_10547_29881)">
<circle cx="16" cy="16" r="18" fill="#9FCFF2"/>
<mask id="mask0_10547_29881" style="mask-type:alpha" maskUnits="userSpaceOnUse" x="0" y="0" width="32" height="32">
<circle cx="16" cy="16" r="16" fill="#9FCFF2"/>
</mask>
<g mask="url(#mask0_10547_29881)">
<path d="M32.268 33.4651C31.9025 33.1359 31.5617 32.8288 31.2455 32.5424C26.8819 28.5936 26.7847 28.5054 22.569 30.0036C22.3979 29.9854 22.2618 29.9751 22.1529 29.966C21.9102 29.947 21.7309 29.8597 21.6151 29.7042C21.5698 29.6446 21.5166 29.572 21.4479 29.4852C21.0319 27.9793 20.6043 27.7797 20.0457 27.6618C19.736 27.597 19.4664 27.5399 19.1476 26.892C19.1839 26.1247 19.053 25.6867 18.7342 25.513C18.4335 25.3497 18.0227 25.4638 17.4758 25.8629C17.0429 26.1118 16.2783 26.4552 15.9621 26.0107C15.6018 25.504 15.931 24.1652 16.7734 23.4356C17.5782 22.7384 18.5501 22.855 19.5079 23.7622C20.6496 25.4651 21.1719 25.3407 21.3443 25.2992C21.6695 25.2214 21.8652 24.878 21.943 24.2495C21.9469 24.2158 21.9417 24.1795 21.9274 24.1471C21.365 22.8602 21.4337 22.7889 22.0843 22.1176C22.2372 21.9595 22.4108 21.7806 22.613 21.5513C22.6376 21.524 22.6532 21.489 22.6597 21.4528C22.6843 21.3063 22.6986 21.1897 22.7115 21.0951C22.7417 20.8566 22.9387 20.5767 23.3025 20.2553C23.4593 20.1166 23.6563 19.943 23.9051 19.7162C23.9401 19.6851 23.9621 19.641 23.9686 19.5943C23.9958 19.3675 24.0088 19.1939 24.0204 19.0539C24.0321 18.8997 24.0451 18.7416 24.0671 18.7144C24.0878 18.6923 24.2278 18.6612 24.3509 18.6327C24.4766 18.6042 24.6321 18.5705 24.8343 18.5148C24.8434 18.5109 24.8537 18.5083 24.8628 18.5044C26.396 17.8163 26.2353 17.0594 26.1173 16.506C26.0616 16.2443 26.0344 16.09 26.1277 15.976C26.3726 15.6727 27.4651 15.525 29.4674 15.525C29.5465 15.525 29.6164 15.477 29.6475 15.4045C29.6774 15.3319 29.6605 15.2477 29.6048 15.1932C28.9957 14.5841 28.6691 13.8674 28.3529 13.1741C27.78 11.9183 27.2396 10.7312 25.087 11.1109C24.6438 10.8971 24.5259 10.6794 24.4105 10.4681C24.1889 10.0599 23.9712 9.81494 22.8489 9.85771C22.8256 9.85771 22.7996 9.86419 22.7776 9.87326C22.1529 10.1415 21.8484 10.3735 21.759 10.647C21.6695 10.923 21.8147 11.1653 21.9676 11.4206C22.2268 11.8548 22.5495 12.3939 22.0156 13.4216C21.4894 14.1824 21.1836 14.3236 21.0164 14.3081C20.7248 14.2809 20.4798 13.7301 20.2427 13.1974C20.1403 12.968 20.0353 12.7322 19.9187 12.5157C19.8811 12.4458 19.8046 12.4056 19.7256 12.4147C18.5916 12.5443 17.3566 12.6453 17.0624 12.1995C16.8835 11.9274 17.0157 11.3999 17.4551 10.6314C18.2197 9.29267 19.1294 9.05939 19.793 8.88832C20.2142 8.77946 20.577 8.68615 20.7455 8.34531C20.9334 7.96429 20.8194 7.33704 20.3386 6.15642C20.2194 5.86223 19.9278 5.67302 19.6115 5.6795C18.4698 5.70283 18.2223 5.83501 17.9721 6.03978C17.7479 6.22251 17.4706 6.4506 14.4743 6.45319C12.3152 5.56416 11.4703 5.98923 10.7912 6.33137C10.0499 6.70461 9.45632 7.00398 7.13394 5.32959C6.84883 5.12353 6.48855 5.04577 6.14382 5.11964C5.17314 5.32829 4.68974 5.61988 4.32168 5.84149C3.72294 6.20307 3.49745 6.33785 1.55738 5.43456C1.53146 5.4229 1.50424 5.41642 1.47573 5.41642C1.40186 5.41642 1.13748 5.37754 0.832929 5.33218C-1.91323 4.92654 -4.82787 4.66864 -5.61841 5.82983C-5.92815 6.28472 -5.86594 6.89771 -5.43179 7.65197C-4.88101 8.60839 -5.1402 8.7989 -5.53288 9.0879C-5.92945 9.3795 -6.47116 9.77866 -6.09663 10.9826C-6.08496 11.0176 -6.06423 11.05 -6.03572 11.0733C-3.65243 13.073 -3.41138 13.2376 -2.70118 12.5119C-2.33054 12.1334 -1.71106 11.501 0.144768 11.1653C5.1511 12.368 5.71356 14.2951 6.56242 17.2072C7.24021 19.5321 8.08259 22.4247 11.583 25.828C11.6141 25.8591 11.6556 25.8772 11.6996 25.8824C13.4388 26.0535 13.5801 26.3878 13.7602 26.8103C13.9274 27.2056 14.1361 27.6967 15.3374 28.127C15.3491 28.1296 15.3608 28.1335 15.3711 28.1361C18.4309 28.6467 18.9532 29.3141 19.5066 30.0217C19.8422 30.452 20.1896 30.8952 21.0604 31.3047C21.6462 31.9268 21.5179 32.3597 21.3261 33.0102C21.0047 34.0924 20.5654 35.575 23.3154 38.6697C23.3297 38.6853 23.3452 38.6982 23.3634 38.7086C24.8149 39.5782 24.2433 42.5551 23.6887 45.4347C23.1664 48.1524 22.6726 50.7197 23.6265 52.0429C23.9595 52.5055 24.4546 52.7829 25.1 52.8697C25.1091 52.8697 25.1168 52.871 25.1259 52.871C25.1998 52.871 25.2672 52.8295 25.3009 52.7621C25.3605 52.639 25.411 52.5418 25.4525 52.4628C25.6676 52.0467 25.6728 51.9962 25.5406 51.5413C25.5134 51.4467 25.4797 51.3301 25.4408 51.181C25.665 50.3231 25.8828 50.0743 26.0746 49.854C26.291 49.6064 26.4957 49.3719 26.624 48.536C26.624 48.5191 26.624 48.4997 26.624 48.4828C26.4957 47.3203 27.1113 47.0456 27.7619 46.754C28.3334 46.4974 28.9801 46.2084 28.7831 45.2533C28.9399 44.5703 29.2173 44.521 29.6735 44.4381C30.3357 44.3189 31.1586 44.1698 31.7289 42.1092C32.3483 41.5066 32.7877 41.2863 33.1428 41.1088C33.7467 40.8055 34.1459 40.6046 34.7057 39.1168C34.7083 39.1091 34.7109 39.1 34.7135 39.0922C34.9092 38.2706 35.2682 37.5941 35.5857 36.9966C36.0069 36.2035 36.3399 35.5763 36.0587 34.9983C35.736 34.336 34.637 33.8915 32.2706 33.4664L32.268 33.4651Z" fill="#4C76BF"/>
<path d="M40.6765 5.62285C40.7827 3.68537 40.937 2.83522 41.0199 2.37903C41.121 1.82177 41.1119 1.76993 40.8203 1.27228C40.7814 1.20489 40.7361 1.12713 40.6842 1.0377C40.7516 0.665761 41.1028 0.165516 41.4424 -0.320473C41.9413 -1.03196 42.4118 -1.70457 42.1293 -2.16982C41.8947 -2.55602 41.2221 -2.65452 39.952 -2.48734C38.9463 -2.49641 38.5342 -2.69599 38.0975 -2.90594C37.062 -3.40488 35.9915 -3.92068 28.3285 -2.48863C28.322 -2.48863 28.3155 -2.48604 28.309 -2.48345C26.5348 -1.96376 26.2225 -1.51665 25.9478 -1.12268C25.7443 -0.831086 25.5693 -0.579667 24.7075 -0.28937C24.6842 -0.281594 24.6622 -0.268634 24.6427 -0.251787C24.0725 0.241978 23.8548 0.677425 23.9792 1.07918C24.2241 1.87361 25.7313 2.20667 27.9189 2.45938C28.8157 2.91945 28.8456 3.11644 28.9142 3.5817C28.9687 3.94975 29.0451 4.45518 29.5013 5.26905C29.5078 5.28071 29.5156 5.29108 29.5246 5.30145C30.4292 6.33823 30.5459 6.47042 30.2284 7.48516C30.2232 7.50071 30.2206 7.51497 30.2193 7.53052C30.1545 8.58026 30.7429 10.3674 31.8509 10.8962C32.022 10.9778 32.2319 11.04 32.4756 11.04C32.8527 11.04 33.3063 10.8897 33.8117 10.4244C33.835 10.4024 33.8532 10.3752 33.8635 10.3454C34.5893 8.2783 35.0299 8.24849 35.5885 8.20961C36.0356 8.17851 36.5929 8.13963 37.3277 7.32965C37.9821 6.8605 38.3152 6.83458 38.6664 6.80866C39.1459 6.77238 39.5995 6.73739 40.6156 5.75245C40.6505 5.71875 40.6713 5.6721 40.6739 5.62285H40.6765Z" fill="#4C76BF"/>
<path d="M17.4124 -0.199565C17.8841 -0.0842233 18.4725 0.0583334 19.2501 0.588386C19.2553 0.592274 19.2604 0.594866 19.2656 0.597457C20.0199 1.01346 20.5901 1.30376 21.0683 1.30376C21.185 1.30376 21.2951 1.28691 21.4014 1.24933C21.7578 1.12621 22.0351 0.797037 22.2969 0.186635C22.893 -0.456167 23.5138 -0.719249 24.062 -0.951228C24.7813 -1.25578 25.402 -1.52016 25.6211 -2.48307C25.634 -2.53879 25.6211 -2.59841 25.5861 -2.64377C25.1714 -3.18937 24.4586 -3.5017 23.5229 -3.54965C21.9353 -3.6287 19.9693 -2.91981 19.0168 -1.93098C18.3286 -1.68734 18.1096 -1.74695 17.8556 -1.81564C17.5601 -1.89599 17.2245 -1.98671 16.3199 -1.70419C16.2305 -1.67568 16.1734 -1.58885 16.1851 -1.49554C16.3082 -0.471719 16.7709 -0.358969 17.4124 -0.202157V-0.199565Z" fill="#4C76BF"/>
<path d="M21.1732 3.77405C20.9593 3.8868 20.8388 4.08897 20.8323 4.34687C20.8168 4.95338 21.4233 5.72708 22.3421 6.27916C22.7854 6.79884 22.8916 7.24336 22.9927 7.67363C23.1793 8.45898 23.3543 9.20028 25.4343 10.009C25.4563 10.018 25.481 10.0219 25.5043 10.0219C25.5069 10.0219 25.5095 10.0219 25.5121 10.0219C25.678 10.0154 25.8114 10.0141 25.9229 10.0141C25.9436 10.0141 25.9631 10.0141 25.9825 10.0141C26.5165 10.0141 26.602 9.93639 26.637 9.42967C26.6448 9.31951 26.6538 9.18214 26.6746 9.00718C26.6797 8.96053 26.6681 8.91257 26.6422 8.87369C25.1544 6.70942 24.855 5.9124 24.7112 5.52879C24.5479 5.09205 24.4934 5.03762 23.7366 4.54386C22.5767 3.7883 21.6656 3.51485 21.1706 3.77405H21.1732Z" fill="#4C76BF"/>
<path d="M7.94204 4.83014C8.02887 4.91438 8.13644 4.974 8.25567 4.99603C8.55374 5.04916 8.83238 5.07379 9.09027 5.07379C10.0169 5.07379 10.6727 4.76275 10.9578 4.37915C11.1535 4.11477 11.182 3.80892 11.0368 3.53936C10.7051 2.92377 9.58145 2.61663 7.94204 2.6905C7.81374 2.69568 7.68803 2.74234 7.58824 2.82398C7.29535 3.06244 7.14891 3.29442 7.13077 3.54713C7.09966 3.98387 7.46253 4.36489 7.93945 4.83014H7.94204Z" fill="#4C76BF"/>
<path d="M17.4897 3.94101C17.8902 4.20928 18.3723 4.34406 18.8168 4.34406C19.2613 4.34406 19.7007 4.20021 19.9547 3.91509C20.2152 3.6222 20.4925 2.95737 19.5115 1.76378C19.4402 1.67825 19.3521 1.60567 19.2523 1.55643C19.089 1.47737 18.9607 1.41128 18.8544 1.35685C18.3244 1.08599 18.2907 1.07951 17.644 1.11709C17.5999 1.11968 17.552 1.12228 17.5014 1.12487C17.1904 1.14172 16.9195 1.34648 16.8184 1.64067C16.4918 2.58932 16.7303 3.4317 17.4897 3.94101Z" fill="#4C76BF"/>
<path d="M12.5451 2.78489C12.6682 2.8147 12.7991 2.83025 12.9274 2.83025C13.2812 2.83025 13.6156 2.70973 13.718 2.4298C13.8178 2.15894 13.7063 1.71831 12.606 1.16363C12.5788 1.14938 12.549 1.1429 12.5192 1.1429H11.7105V1.1416C11.612 1.1416 11.5291 1.21418 11.5174 1.31267C11.4086 2.18875 11.9762 2.64882 12.5438 2.78619L12.5451 2.78489Z" fill="#4C76BF"/>
<path d="M15.7046 3.80303C15.4882 3.66954 15.2329 3.61511 14.9802 3.64622L14.2777 3.73434C14.2052 3.74342 14.1417 3.79137 14.1196 3.86005C13.889 4.56765 14.2142 5.17417 14.9892 5.4839C15.2653 5.59406 15.5815 5.65368 15.8718 5.65368C16.2878 5.65368 16.6546 5.53056 16.7867 5.25581C16.9798 4.85277 16.6157 4.36419 15.7033 3.80173L15.7046 3.80303Z" fill="#4C76BF"/>
<path d="M28.4407 16.5974C28.4226 16.6363 28.4174 16.6803 28.4265 16.7218C28.512 17.1158 28.687 17.3931 28.9462 17.5434C29.0913 17.6277 29.2559 17.6704 29.4412 17.6704C29.5864 17.6704 29.7445 17.6445 29.913 17.5914C29.9791 17.5707 30.0283 17.5175 30.0439 17.4501C30.2344 16.644 29.9078 16.219 29.5397 16.0894C29.1198 15.9416 28.6468 16.1593 28.4407 16.5961V16.5974Z" fill="#4C76BF"/>
<path d="M24.4077 26.1857L23.6444 26.1559C23.5796 26.1533 23.52 26.1818 23.4811 26.2324C23.1092 26.7223 23.1947 27.08 23.3321 27.2938C23.5874 27.6916 24.1939 27.8536 24.6864 27.8536C24.825 27.8536 24.9559 27.8407 25.0661 27.8161C25.4989 27.7202 25.5948 27.4895 25.6117 27.3599C25.6596 27.0126 25.2929 26.6354 24.4907 26.2078C24.4648 26.1935 24.4362 26.1857 24.4064 26.1844L24.4077 26.1857Z" fill="#4C76BF"/>
<path d="M15.1291 1.64204C15.155 1.655 15.1836 1.66148 15.2121 1.66148C15.2302 1.66148 15.2484 1.65889 15.2652 1.65371C16.1516 1.3997 16.2877 0.960362 16.2903 0.721904C16.2955 0.216475 15.7499 -0.269514 14.8181 -0.597395C14.6004 -0.673857 14.3528 -0.651825 14.1662 -0.517044C13.9718 -0.378375 13.9174 -0.191756 13.9031 -0.0712303C13.8319 0.550836 14.5861 1.38415 15.1278 1.64204H15.1291Z" fill="#4C76BF"/>
</g>
</g>
<defs>
<clipPath id="clip0_10547_29881">
<rect width="32" height="32" rx="16" fill="white"/>
</clipPath>
</defs>
</svg>
