<svg width="32" height="32" viewBox="0 0 32 32" fill="none" xmlns="http://www.w3.org/2000/svg">
<g clip-path="url(#clip0_10547_29798)">
<circle cx="16" cy="16" r="18" fill="#9FCFF2"/>
<mask id="mask0_10547_29798" style="mask-type:alpha" maskUnits="userSpaceOnUse" x="0" y="0" width="32" height="32">
<circle cx="16" cy="16" r="16" fill="#9FCFF2"/>
</mask>
<g mask="url(#mask0_10547_29798)">
<path d="M22.574 9.40867C22.174 9.04838 21.801 8.7122 21.4549 8.39872C16.6789 4.07666 16.5725 3.98021 11.9582 5.61995C11.771 5.60009 11.6221 5.58875 11.5029 5.57882C11.2372 5.55801 11.041 5.4625 10.9143 5.29229C10.8646 5.22704 10.8065 5.1476 10.7313 5.05256C10.2759 3.40431 9.80785 3.18587 9.1965 3.05679C8.85748 2.98586 8.56244 2.92345 8.2135 2.21422C8.25322 1.37449 8.10995 0.89505 7.76101 0.704975C7.43193 0.526249 6.98228 0.651073 6.38368 1.08796C5.90992 1.36031 5.07302 1.7362 4.72692 1.24967C4.33259 0.695045 4.69287 -0.770226 5.61488 -1.56882C6.49574 -2.33195 7.55959 -2.20429 8.60783 -1.21137C9.8575 0.652494 10.4291 0.516321 10.6178 0.47093C10.9738 0.385822 11.188 0.00992966 11.2731 -0.678026C11.2774 -0.714907 11.2717 -0.754622 11.2561 -0.790083C10.6405 -2.19862 10.7157 -2.27663 11.4277 -3.0114C11.5951 -3.18445 11.7852 -3.3802 12.0065 -3.63127C12.0334 -3.66105 12.0504 -3.69935 12.0575 -3.73907C12.0845 -3.89936 12.1001 -4.02702 12.1143 -4.13057C12.1474 -4.39156 12.363 -4.69795 12.7611 -5.04973C12.9327 -5.20151 13.1483 -5.39158 13.4207 -5.63981C13.459 -5.67385 13.4831 -5.72208 13.4902 -5.77315C13.52 -6.02138 13.5342 -6.21145 13.5469 -6.36465C13.5597 -6.53344 13.5739 -6.7065 13.598 -6.73628C13.6207 -6.7604 13.7739 -6.79444 13.9086 -6.82565C14.0462 -6.85685 14.2164 -6.89373 14.4377 -6.95473C14.4476 -6.95898 14.459 -6.96182 14.4689 -6.96608C16.147 -7.71928 15.9711 -8.54766 15.842 -9.15335C15.781 -9.43988 15.7512 -9.60867 15.8533 -9.7335C16.1214 -10.0654 17.3172 -10.2271 19.5087 -10.2271C19.5952 -10.2271 19.6718 -10.2796 19.7059 -10.359C19.7385 -10.4385 19.7201 -10.5307 19.6591 -10.5903C18.9924 -11.2569 18.6349 -12.0413 18.2888 -12.8002C17.6619 -14.1747 17.0704 -15.474 14.7143 -15.0584C14.2292 -15.2925 14.1001 -15.5308 13.9739 -15.762C13.7313 -16.2088 13.493 -16.4769 12.2646 -16.4301C12.2391 -16.4301 12.2107 -16.423 12.1866 -16.413C11.5029 -16.1194 11.1696 -15.8655 11.0717 -15.5662C10.9738 -15.2641 11.1327 -14.9988 11.3001 -14.7194C11.5838 -14.2442 11.937 -13.6541 11.3526 -12.5293C10.7767 -11.6967 10.4419 -11.542 10.2589 -11.5591C9.93977 -11.5888 9.67168 -12.1917 9.4121 -12.7747C9.30005 -13.0258 9.18515 -13.2839 9.05749 -13.5208C9.01635 -13.5974 8.93266 -13.6414 8.84614 -13.6314C7.60498 -13.4896 6.25318 -13.3789 5.93119 -13.8669C5.73545 -14.1648 5.88013 -14.7421 6.36099 -15.5832C7.19788 -17.0485 8.19364 -17.3038 8.9199 -17.4911C9.3809 -17.6102 9.77807 -17.7124 9.96247 -18.0854C10.1681 -18.5024 10.0433 -19.189 9.51707 -20.4812C9.38657 -20.8032 9.06742 -21.0103 8.72131 -21.0032C7.47165 -20.9777 7.20072 -20.833 6.92695 -20.6089C6.68156 -20.4089 6.37801 -20.1592 3.09852 -20.1564C0.735363 -21.1294 -0.189476 -20.6642 -0.932751 -20.2897C-1.74411 -19.8812 -2.39377 -19.5535 -4.93565 -21.3862C-5.24772 -21.6117 -5.64205 -21.6968 -6.01936 -21.616C-7.08179 -21.3876 -7.61088 -21.0684 -8.01372 -20.8259C-8.66905 -20.4301 -8.91586 -20.2826 -11.0393 -21.2713C-11.0677 -21.284 -11.0975 -21.2911 -11.1287 -21.2911C-11.2095 -21.2911 -11.4989 -21.3337 -11.8322 -21.3833C-14.8379 -21.8273 -18.0281 -22.1096 -18.8933 -20.8386C-19.2323 -20.3408 -19.1643 -19.6698 -18.6891 -18.8443C-18.0862 -17.7975 -18.3699 -17.5889 -18.7997 -17.2726C-19.2338 -16.9535 -19.8267 -16.5166 -19.4167 -15.1988C-19.404 -15.1605 -19.3813 -15.1251 -19.3501 -15.0995C-16.7415 -12.9109 -16.4777 -12.7307 -15.7004 -13.5251C-15.2947 -13.9392 -14.6167 -14.6315 -12.5854 -14.9988C-7.1059 -13.6825 -6.49029 -11.5732 -5.5612 -8.38596C-4.81934 -5.84123 -3.89734 -2.67522 -0.0660706 1.04966C-0.0320263 1.08371 0.0133648 1.10357 0.061594 1.10924C1.96517 1.29648 2.11978 1.66244 2.31695 2.12486C2.49993 2.55749 2.7283 3.09509 4.04322 3.56602C4.05598 3.56885 4.06875 3.57311 4.0801 3.57595C7.42909 4.13482 8.00073 4.86533 8.60641 5.63981C8.9738 6.11074 9.35394 6.59586 10.3072 7.04409C10.9483 7.72495 10.8079 8.19872 10.5979 8.91079C10.2462 10.0952 9.7653 11.7179 12.7753 15.1052C12.7909 15.1222 12.8079 15.1364 12.8278 15.1478C14.4164 16.0996 13.7909 19.3578 13.1838 22.5096C12.6122 25.4841 12.0717 28.2941 13.1157 29.7423C13.4803 30.2487 14.0221 30.5523 14.7285 30.6473C14.7384 30.6473 14.7469 30.6487 14.7569 30.6487C14.8377 30.6487 14.9115 30.6033 14.9484 30.5296C15.0136 30.3948 15.0689 30.2885 15.1143 30.2019C15.3498 29.7466 15.3555 29.6913 15.2108 29.1934C15.181 29.0898 15.1441 28.9622 15.1016 28.7991C15.347 27.86 15.5853 27.5877 15.7952 27.3466C16.0321 27.0756 16.2562 26.8189 16.3966 25.904C16.3966 25.8855 16.3966 25.8643 16.3966 25.8458C16.2562 24.5735 16.93 24.2727 17.642 23.9536C18.2676 23.6727 18.9754 23.3564 18.7598 22.311C18.9314 21.5635 19.235 21.5096 19.7343 21.4188C20.4591 21.2883 21.3598 21.1252 21.9839 18.8698C22.662 18.2102 23.1428 17.9691 23.5315 17.7748C24.1925 17.4428 24.6294 17.223 25.2422 15.5946C25.245 15.5861 25.2478 15.5761 25.2507 15.5676C25.4649 14.6683 25.8578 13.9279 26.2053 13.274C26.6663 12.4059 27.0308 11.7193 26.723 11.0867C26.3698 10.3619 25.167 9.87534 22.5769 9.41009L22.574 9.40867Z" fill="#4C76BF"/>
<path d="M13.9696 1.44101L13.1341 1.40838C13.0632 1.40554 12.9979 1.43675 12.9554 1.49207C12.5483 2.02825 12.6419 2.41975 12.7923 2.65379C13.0717 3.08926 13.7355 3.26657 14.2745 3.26657C14.4263 3.26657 14.5696 3.25238 14.6902 3.22543C15.1639 3.12047 15.2689 2.86798 15.2873 2.72613C15.3398 2.34599 14.9384 1.93321 14.0604 1.46512C14.032 1.44952 14.0008 1.44101 13.9682 1.43959L13.9696 1.44101Z" fill="#4C76BF"/>
<path d="M18.0855 28.868C17.9919 28.9219 17.9366 28.9758 17.9068 29.0269C17.7933 29.1886 17.782 29.3744 17.8742 29.5375C17.9919 29.7446 18.2728 29.8865 18.5494 29.8865C18.5763 29.8865 18.6019 29.8865 18.6288 29.8822C18.8827 29.8567 19.07 29.712 19.1437 29.4865C19.1636 29.4255 19.1551 29.3602 19.121 29.3063C18.6728 28.6056 18.216 28.7943 18.087 28.868H18.0855Z" fill="#4C76BF"/>
</g>
</g>
<defs>
<clipPath id="clip0_10547_29798">
<rect width="32" height="32" rx="16" fill="white"/>
</clipPath>
</defs>
</svg>
